<svg width="24" height="24" viewBox="0 0 24 24" fill="none" xmlns="http://www.w3.org/2000/svg">
<g clip-path="url(#clip0_98_4945)">
<path d="M12 2.25C12.4142 2.25 12.75 2.58579 12.75 3V4C12.75 4.41421 12.4142 4.75 12 4.75C11.5858 4.75 11.25 4.41421 11.25 4V3C11.25 2.58579 11.5858 2.25 12 2.25Z" fill="#F59E0B"/>
<path d="M10.7578 8.9988C11.1521 8.83547 11.5748 8.7514 12.0016 8.7514C12.4284 8.7514 12.851 8.83547 13.2453 8.9988C13.6396 9.16214 13.9979 9.40154 14.2997 9.70334C14.5926 9.99623 15.0675 9.99623 15.3604 9.70334C15.6533 9.41044 15.6533 8.93557 15.3604 8.64268C14.9193 8.20159 14.3957 7.8517 13.8194 7.61298C13.243 7.37427 12.6254 7.2514 12.0016 7.2514C11.3778 7.2514 10.7601 7.37427 10.1838 7.61298C9.60747 7.8517 9.08383 8.20159 8.64274 8.64268C8.20165 9.08376 7.85176 9.60741 7.61304 10.1837C7.37433 10.76 7.25146 11.3777 7.25146 12.0015C7.25146 12.6253 7.37433 13.243 7.61304 13.8193C7.85176 14.3956 8.20165 14.9192 8.64274 15.3603C8.93563 15.6532 9.4105 15.6532 9.7034 15.3603C9.99629 15.0674 9.99629 14.5926 9.7034 14.2997C9.4016 13.9979 9.1622 13.6396 8.99886 13.2453C8.83553 12.8509 8.75146 12.4283 8.75146 12.0015C8.75146 11.5747 8.83553 11.1521 8.99886 10.7577C9.1622 10.3634 9.4016 10.0051 9.7034 9.70334C10.0052 9.40154 10.3635 9.16214 10.7578 8.9988Z" fill="#F59E0B"/>
<path d="M3 11.25C2.58579 11.25 2.25 11.5858 2.25 12C2.25 12.4142 2.58579 12.75 3 12.75H4C4.41421 12.75 4.75 12.4142 4.75 12C4.75 11.5858 4.41421 11.25 4 11.25H3Z" fill="#F59E0B"/>
<path d="M6.13043 5.06968C5.83753 4.77678 5.36266 4.77678 5.06977 5.06968C4.77687 5.36257 4.77687 5.83744 5.06977 6.13034L5.76977 6.83034C6.06266 7.12323 6.53753 7.12323 6.83043 6.83034C7.12332 6.53744 7.12332 6.06257 6.83043 5.76968L6.13043 5.06968Z" fill="#F59E0B"/>
<path fill-rule="evenodd" clip-rule="evenodd" d="M7.34059 17.0191C7.37809 17.2878 7.56057 17.5268 7.83408 17.6233L8.35808 17.8082L7.52361 18.614C7.22566 18.9018 7.21737 19.3766 7.50511 19.6745C7.79286 19.9725 8.26766 19.9808 8.56561 19.693L9.40008 18.8872L9.56657 19.4173C9.69068 19.8125 10.1117 20.0322 10.5068 19.9081C10.902 19.784 11.1218 19.363 10.9976 18.9679L10.6064 17.7222L11.9476 16.427L13.7833 16.9474L14.236 18.763L13.244 19.6122C12.9294 19.8815 12.8926 20.355 13.162 20.6696C13.4314 20.9843 13.9048 21.021 14.2195 20.7517L14.6417 20.3902L14.9223 21.5159C15.0225 21.9178 15.4296 22.1624 15.8315 22.0622C16.2334 21.962 16.478 21.555 16.3778 21.153L16.0971 20.0274L16.6394 20.1483C17.0437 20.2384 17.4445 19.9837 17.5346 19.5794C17.6248 19.1751 17.3701 18.7743 16.9658 18.6842L15.6914 18.4002L15.2403 16.5907L16.6087 15.2614L18.4073 15.7772L18.6467 17.0607C18.7227 17.4679 19.1143 17.7364 19.5215 17.6605C19.9287 17.5846 20.1973 17.1929 20.1213 16.7857L20.0194 16.2394L21.1346 16.5592C21.5328 16.6734 21.9481 16.4432 22.0623 16.045C22.1765 15.6469 21.9463 15.2315 21.5481 15.1173L20.4329 14.7976L20.8088 14.3884C21.089 14.0833 21.0688 13.6088 20.7637 13.3287C20.4587 13.0485 19.9842 13.0686 19.704 13.3737L18.8209 14.3353L17.0283 13.8212L16.5614 11.9714L17.9074 10.6715L19.1387 11.1059C19.5293 11.2437 19.9577 11.0388 20.0955 10.6482C20.2333 10.2576 20.0284 9.8292 19.6378 9.69138L19.1138 9.5065L19.9483 8.70064C20.2462 8.41289 20.2545 7.93809 19.9668 7.64014C19.679 7.34218 19.2042 7.3339 18.9063 7.62164L18.0718 8.42751L17.9053 7.89739C17.7812 7.5022 17.3602 7.28246 16.965 7.40657C16.5698 7.53069 16.3501 7.95166 16.4742 8.34684L16.8654 9.5925L15.5242 10.8877L13.6885 10.3673L13.6579 10.2446L10.4829 13.6494L10.9105 15.3433L9.56443 16.6432L8.33317 16.2088C8.26755 16.1856 8.20086 16.1721 8.13466 16.1676L7.34059 17.0191ZM12.3676 14.987L11.9006 13.1367L13.269 11.8075L15.1043 12.3278L15.5713 14.1779L14.2028 15.5072L12.3676 14.987Z" fill="#22D3EE"/>
<path fill-rule="evenodd" clip-rule="evenodd" d="M21.5303 2.46967C21.8232 2.76256 21.8232 3.23744 21.5303 3.53033L3.53033 21.5303C3.23744 21.8232 2.76256 21.8232 2.46967 21.5303C2.17678 21.2374 2.17678 20.7626 2.46967 20.4697L20.4697 2.46967C20.7626 2.17678 21.2374 2.17678 21.5303 2.46967Z" fill="white"/>
</g>
<defs>
<clipPath id="clip0_98_4945">
<rect width="24" height="24" fill="white"/>
</clipPath>
</defs>
</svg>
