<svg width="24" height="24" viewBox="0 0 24 24" fill="none" xmlns="http://www.w3.org/2000/svg">
<circle cx="12" cy="12" r="9" stroke="#0F172A" stroke-width="1.5" stroke-linecap="round" stroke-linejoin="round"/>
<circle cx="12" cy="12" r="3" stroke="#0F172A" stroke-width="1.5" stroke-linecap="round" stroke-linejoin="round"/>
<path fill-rule="evenodd" clip-rule="evenodd" d="M9.09451 12.75C9.03281 12.5103 9 12.259 9 12C9 11.741 9.03281 11.4897 9.09451 11.25H3V12.75H9.09451ZM9.10877 11.1967L3.83085 8.14946L4.58085 6.85042L9.85949 9.89804C9.50858 10.2553 9.24644 10.7001 9.10877 11.1967ZM9.89816 9.85937L6.85054 4.58073L8.14958 3.83073L11.1968 9.10872C10.7003 9.24636 10.2555 9.50848 9.89816 9.85937ZM11.25 9.09451C11.4897 9.03281 11.741 9 12 9C12.259 9 12.5103 9.03281 12.75 9.09451V3H11.25V9.09451ZM12.8032 9.10874C13.2998 9.24638 13.7446 9.50851 14.1019 9.85941L17.1495 4.58073L15.8505 3.83073L12.8032 9.10874ZM14.1405 9.89806C14.4914 10.2554 14.7536 10.7002 14.8912 11.1967L20.1693 8.1494L19.4193 6.85036L14.1405 9.89806ZM14.9055 11.25C14.9672 11.4897 15 11.741 15 12C15 12.259 14.9672 12.5103 14.9055 12.75H21V11.25H14.9055ZM14.8913 12.8031C14.7536 13.2997 14.4915 13.7445 14.1406 14.1018L19.4193 17.1495L20.1693 15.8504L14.8913 12.8031ZM14.1019 14.1405C13.7446 14.4914 13.2999 14.7536 12.8033 14.8912L15.8505 20.1692L17.1496 19.4192L14.1019 14.1405ZM12.75 14.9055C12.5103 14.9672 12.259 15 12 15C11.741 15 11.4897 14.9672 11.25 14.9055V21H12.75V14.9055ZM11.1967 14.8913C10.7002 14.7536 10.2554 14.4915 9.8981 14.1406L6.85048 19.4192L8.14952 20.1692L11.1967 14.8913ZM9.85938 14.1018C9.50848 13.7445 9.24636 13.2997 9.10873 12.8032L3.83085 15.8504L4.58085 17.1494L9.85938 14.1018Z" fill="#0F172A"/>
</svg>
