<svg width="19" height="19" viewBox="0 0 19 19" fill="none" xmlns="http://www.w3.org/2000/svg">
<g clip-path="url(#clip0_98_7248)">
<path d="M4.62508 4.25H14.3751C14.4831 4.28788 14.581 4.34998 14.6613 4.43155C14.7416 4.51311 14.8022 4.61198 14.8384 4.72057C14.8746 4.82916 14.8854 4.94459 14.8701 5.05802C14.8548 5.17146 14.8138 5.27989 14.7501 5.375L11.0001 9.5V14.75L8.00008 12.5V9.5L4.25008 5.375C4.1864 5.27989 4.14533 5.17146 4.13003 5.05802C4.11472 4.94459 4.12558 4.82916 4.16178 4.72057C4.19797 4.61198 4.25855 4.51311 4.33885 4.43155C4.41916 4.34998 4.51707 4.28788 4.62508 4.25Z" stroke="white" stroke-linecap="round" stroke-linejoin="round"/>
</g>
<defs>
<clipPath id="clip0_98_7248">
<rect width="18" height="18" fill="white" transform="translate(0.5 0.5)"/>
</clipPath>
</defs>
</svg>
