<svg width="64" height="54" viewBox="0 0 64 54" fill="none" xmlns="http://www.w3.org/2000/svg">
<g clip-path="url(#clip0_98_6000)">
<path fill-rule="evenodd" clip-rule="evenodd" d="M25.0344 11.1209C24.3036 11.2871 23.587 11.512 22.8916 11.7934V11.8409C22.8912 11.5564 22.9464 11.2746 23.054 11.0117C23.1615 10.7488 23.3194 10.5099 23.5184 10.3088C23.7175 10.1076 23.9538 9.94809 24.214 9.83939C24.4741 9.73069 24.7529 9.67493 25.0344 9.67529V11.1209ZM30.3915 11.4837C28.9284 11.1185 27.5366 10.5072 26.2743 9.67529H30.3915V11.4837ZM37.8913 12.879C36.5658 12.0647 35.1185 11.4729 33.6057 11.1265V9.67529H37.8913V12.879ZM38.9627 9.68088C39.3563 9.68 39.7425 9.78899 40.0787 9.9958C40.4149 10.2026 40.688 10.4992 40.868 10.853C40.2483 11.1107 39.6106 11.3215 38.9599 11.4837L38.9627 9.68088ZM30.4025 14.7376C28.8733 14.3575 27.4225 13.7075 26.1169 12.8176V10.8055C27.4387 11.6193 28.8823 12.2111 30.3915 12.5581L30.4025 14.7376ZM38.9627 12.5637C39.6945 12.3975 40.4119 12.1726 41.1083 11.8911V14.0037C40.4157 14.3105 39.6977 14.5552 38.9627 14.7348V12.5637ZM33.6057 12.2037C35.1353 12.5826 36.5863 13.2327 37.8913 14.1237V16.1274C36.5658 15.3131 35.1185 14.7212 33.6057 14.3748V12.2037ZM25.0455 14.3748C24.311 14.5387 23.5908 14.7617 22.8916 15.0418V12.9292C23.5839 12.6241 24.3008 12.3795 25.0344 12.1981L25.0455 14.3748ZM26.1169 14.0595C27.4425 14.874 28.8897 15.4668 30.4025 15.8148V17.986C28.8727 17.6061 27.4217 16.9551 26.1169 16.0632V14.0595ZM38.9738 15.8148C39.7052 15.6464 40.4226 15.4206 41.1193 15.1395V17.2548C40.4258 17.5592 39.708 17.8038 38.9738 17.986V15.8148ZM37.9023 19.3758C36.5768 18.5615 35.1295 17.9696 33.6167 17.6232V15.4465C35.1459 15.8266 36.5967 16.4765 37.9023 17.3665V19.3758ZM25.0344 17.6176C24.3039 17.7851 23.5875 18.01 22.8916 18.2902V16.186C23.5839 15.8808 24.3008 15.6362 25.0344 15.4548V17.6176ZM26.6719 19.6716C26.4786 19.5544 26.2908 19.4344 26.1196 19.3088V17.3023C27.4448 18.1171 28.8922 18.709 30.4053 19.0548V19.613C29.1645 19.613 27.9246 19.6334 26.6857 19.6744L26.6719 19.6716ZM25.0344 19.7218V18.6976C24.3011 18.8803 23.5844 19.1248 22.8916 19.4288V19.8139C23.6068 19.7832 24.3192 19.7553 25.0344 19.7302V19.7218ZM23.5405 32.1544C23.3224 32.2381 23.1042 32.3274 22.8916 32.4334V34.546C23.5879 34.2671 24.3043 34.0422 25.0344 33.8734V32.093C24.5346 32.1097 24.0376 32.132 23.5405 32.1516V32.1544ZM26.1058 32.0567V32.3023C27.4108 33.1933 28.8618 33.8433 30.3915 34.2223V32.0511L30.0849 31.9786C28.7595 31.9897 27.4331 32.0158 26.1058 32.0567ZM33.6057 31.973V33.8595C35.119 34.2058 36.5664 34.7986 37.8913 35.6148V33.6083C36.8817 32.9198 35.7835 32.3743 34.6274 31.9869L33.6057 31.973ZM37.339 32.0427C37.5268 32.146 37.7118 32.2548 37.8913 32.3665V32.0567L37.339 32.0427ZM38.9627 32.0958V34.2223C39.697 34.0401 40.4147 33.7955 41.1083 33.4911V32.1851C40.394 32.1516 39.6788 32.1218 38.9627 32.0958ZM41.1083 19.8167V18.3851C40.4114 18.6643 39.694 18.8883 38.9627 19.0548V19.7218C39.6788 19.7479 40.394 19.7758 41.1083 19.8055V19.8167ZM36.2234 19.6576C35.3866 19.2456 34.5092 18.9238 33.6057 18.6976V19.613C34.4783 19.613 35.3508 19.6251 36.2234 19.6493V19.6576ZM30.3915 37.4818C28.8622 37.1017 27.4114 36.4517 26.1058 35.5618V33.5441C27.4309 34.3599 28.8783 34.9527 30.3915 35.2995V37.4818ZM38.9517 35.3106C39.6831 35.1432 40.4004 34.9183 41.0972 34.6381V36.7506C40.4037 37.055 39.686 37.2996 38.9517 37.4818V35.3106ZM37.8803 38.8744C36.559 38.0583 35.1153 37.4645 33.6057 37.1162V34.9451C35.1349 35.3252 36.5857 35.9751 37.8913 36.8651L37.8803 38.8744ZM25.0344 37.1162C24.3039 37.2847 23.5874 37.5105 22.8916 37.7916V35.6762C23.5844 35.3723 24.3011 35.1277 25.0344 34.9451V37.1162ZM26.1058 36.8009C27.4309 37.6166 28.8783 38.2095 30.3915 38.5562V40.7274C28.8607 40.3433 27.4097 39.6875 26.1058 38.7906V36.8009ZM38.9627 38.5562C39.6941 38.3887 40.4115 38.1639 41.1083 37.8837V39.9962C40.4152 40.3018 39.6974 40.5464 38.9627 40.7274V38.5562ZM33.6057 38.1934C35.1345 38.5748 36.5851 39.2246 37.8913 40.1134V42.1199C36.566 41.3047 35.1187 40.7119 33.6057 40.3646V38.1934ZM25.0455 40.3646C24.3119 40.5283 23.5919 40.7485 22.8916 41.0232V38.9106C23.5844 38.6067 24.3011 38.3621 25.0344 38.1795L25.0455 40.3646ZM30.4025 43.9758C28.8729 43.5968 27.4219 42.9468 26.1169 42.0558V40.0492C27.442 40.865 28.8893 41.4578 30.4025 41.8046V43.9758ZM38.9627 41.8046C39.6938 41.6358 40.411 41.411 41.1083 41.132V42.1674C41.1075 42.742 40.8812 43.2928 40.4789 43.6989C40.0766 44.1049 39.5313 44.333 38.9627 44.333V41.8046ZM25.0344 44.333C24.4671 44.333 23.9229 44.1056 23.5212 43.7007C23.1195 43.2957 22.8931 42.7463 22.8916 42.173C23.5844 41.869 24.3011 41.6245 25.0344 41.4418V44.333ZM33.5946 41.4418C35.0627 41.8075 36.4593 42.4208 37.7256 43.2558C37.0937 43.6733 36.4276 44.0356 35.7347 44.3386H33.6057L33.5946 41.4418ZM26.0948 43.2976C26.7433 43.6962 27.4219 44.0424 28.1244 44.333H26.1058L26.0948 43.2976Z" fill="#0F172A"/>
<path fill-rule="evenodd" clip-rule="evenodd" d="M32.5343 9.67529H31.4629V19.6018H32.5343V9.67529ZM32.5343 31.9674H31.4629V44.3246H32.5343V31.9674ZM17.3468 20.132C18.1417 18.3956 19.2357 16.8156 20.5776 15.466C20.9831 15.0555 21.4098 14.667 21.8561 14.3023V12.5944C19.2175 14.5039 17.15 17.1108 15.8805 20.1292L15.8281 20.2548L17.3468 20.1404V20.132ZM15.4304 32.6902C15.8916 32.6483 16.3527 32.6092 16.8111 32.573C16.905 32.8353 17.0044 33.0948 17.1121 33.3516C18.1537 35.8279 19.7808 38.0079 21.8506 39.7004V41.4055C21.0554 40.8344 20.3099 40.1958 19.6222 39.4967C18.0284 37.887 16.7603 35.9789 15.8888 33.879C15.7231 33.4855 15.574 33.0865 15.4387 32.6874L15.4304 32.6902ZM47.1667 32.573L48.5474 32.6902C48.4148 33.0892 48.2713 33.4855 48.1 33.8818C46.8329 36.9017 44.765 39.5092 42.1245 41.4167V39.7116C42.5692 39.3461 42.995 38.9577 43.4002 38.5479C44.8765 37.0636 46.0518 35.3022 46.8602 33.3627C46.9679 33.106 47.0701 32.8465 47.1639 32.5841L47.1667 32.573ZM48.1525 20.2492L46.6338 20.1348C45.8388 18.3983 44.7449 16.8184 43.403 15.4688C42.9978 15.059 42.572 14.6705 42.1272 14.3051V12.5972C44.7678 14.5046 46.8356 17.1121 48.1028 20.132L48.1525 20.2576V20.2492Z" fill="#0F172A"/>
<path d="M6.62724 29.3471L2.4852 29.9303C2.46656 29.933 2.44756 29.9317 2.42946 29.9264C2.41137 29.9211 2.3946 29.912 2.38027 29.8996C2.36475 29.8895 2.3517 29.876 2.34214 29.86C2.33257 29.8441 2.32672 29.8261 2.32504 29.8075L1.86114 26.4168C1.85785 26.3977 1.85861 26.3782 1.86337 26.3594C1.86813 26.3406 1.87678 26.3231 1.88875 26.308C1.91187 26.2785 1.94563 26.2594 1.98264 26.255L2.94911 26.1182C2.96712 26.1159 2.98541 26.1171 3.00295 26.1219C3.02048 26.1267 3.0369 26.1349 3.05128 26.1461C3.06649 26.1572 3.07925 26.1714 3.08876 26.1877C3.09827 26.204 3.10431 26.2222 3.10651 26.241L3.43511 28.6187L3.83275 28.5629L3.50691 26.1852C3.50385 26.1666 3.50472 26.1475 3.50948 26.1292C3.51424 26.1109 3.52277 26.0939 3.53452 26.0791C3.55735 26.0488 3.59107 26.0288 3.62841 26.0233L4.48995 25.9033C4.5084 25.9002 4.52728 25.9011 4.54537 25.9059C4.56345 25.9108 4.58033 25.9194 4.59488 25.9312C4.62491 25.9543 4.64474 25.9884 4.65011 26.0261L4.97043 28.401L5.3653 28.348L5.03946 25.9703C5.03622 25.9517 5.03701 25.9325 5.04177 25.9142C5.04654 25.8959 5.05517 25.8789 5.06707 25.8643C5.07785 25.8493 5.09145 25.8367 5.10709 25.8271C5.12274 25.8175 5.14011 25.8112 5.1582 25.8085L6.1302 25.6745C6.16748 25.6697 6.20514 25.6799 6.23508 25.7028C6.26503 25.7258 6.28487 25.7597 6.29035 25.7973L6.75702 29.188C6.76176 29.2257 6.75169 29.2637 6.72898 29.294C6.70626 29.3243 6.67271 29.3443 6.63552 29.3498L6.62724 29.3471Z" fill="#0F172A"/>
<path d="M7.12701 25.5433L8.07139 25.4344C8.08959 25.4325 8.10799 25.4342 8.12553 25.4394C8.14307 25.4447 8.1594 25.4534 8.17356 25.4651C8.20359 25.4882 8.22343 25.5223 8.22879 25.56L8.39171 26.9972L9.11242 25.4372C9.12834 25.3956 9.15583 25.3594 9.1916 25.3332C9.22736 25.3069 9.26987 25.2917 9.314 25.2893L10.1424 25.1944C10.1606 25.1918 10.1792 25.1931 10.1968 25.1984C10.2145 25.2037 10.2308 25.2128 10.2446 25.2251C10.2746 25.2482 10.2944 25.2823 10.2998 25.32L10.6892 28.7191C10.6933 28.7571 10.6823 28.7952 10.6588 28.8251C10.6357 28.8547 10.6019 28.8737 10.5649 28.8782L9.62051 28.987C9.60251 28.9894 9.58421 28.9881 9.56668 28.9833C9.54915 28.9785 9.53272 28.9703 9.51834 28.9591C9.50326 28.9481 9.49075 28.9339 9.48168 28.9175C9.47262 28.9011 9.46722 28.8829 9.46588 28.8642L9.314 27.5414L8.58777 28.987C8.57011 29.0272 8.54209 29.0619 8.50663 29.0874C8.47117 29.113 8.42957 29.1284 8.38619 29.1321L7.55778 29.2298C7.52106 29.2335 7.48437 29.2225 7.45561 29.1991C7.44066 29.188 7.42824 29.1738 7.41919 29.1574C7.41014 29.141 7.40467 29.1229 7.40314 29.1042L7.00275 25.7024C7.00079 25.684 7.00246 25.6654 7.00768 25.6476C7.01289 25.6299 7.02154 25.6134 7.03312 25.5991C7.05651 25.5694 7.08996 25.5495 7.12701 25.5433Z" fill="#0F172A"/>
<path d="M13.2739 24.8792L14.2956 24.7815C14.3145 24.7795 14.3335 24.7815 14.3515 24.7872C14.3696 24.793 14.3863 24.8024 14.4006 24.815C14.4151 24.8263 14.4271 24.8406 14.4357 24.8569C14.4443 24.8733 14.4493 24.8914 14.4503 24.9099L14.7734 28.3173C14.7749 28.3359 14.7728 28.3546 14.7671 28.3723C14.7614 28.3901 14.7523 28.4065 14.7402 28.4206C14.7271 28.4354 14.7109 28.4472 14.6927 28.4549C14.6746 28.4626 14.655 28.4661 14.6353 28.4652L13.6136 28.5629C13.5954 28.5656 13.5768 28.5642 13.5592 28.5589C13.5415 28.5536 13.5252 28.5445 13.5114 28.5322C13.482 28.5078 13.4632 28.4728 13.4589 28.4345L13.3513 27.2959L12.5063 27.3769L12.614 28.5183C12.6166 28.5557 12.6047 28.5927 12.5808 28.6215C12.5697 28.6362 12.5555 28.6484 12.5393 28.657C12.5231 28.6657 12.5053 28.6707 12.4869 28.6717L11.4625 28.7694C11.4445 28.7718 11.4262 28.7705 11.4086 28.7658C11.3911 28.761 11.3747 28.7527 11.3603 28.7415C11.3452 28.7293 11.3328 28.7141 11.3237 28.6968C11.3147 28.6795 11.3093 28.6605 11.3078 28.641L10.9875 25.2364C10.9846 25.2173 10.9861 25.1979 10.9919 25.1795C10.9976 25.1611 11.0075 25.1443 11.0207 25.1304C11.0438 25.1008 11.0776 25.0818 11.1146 25.0773L12.1363 24.9797C12.1742 24.9766 12.2119 24.9886 12.2412 25.0131C12.2555 25.0246 12.2673 25.039 12.2759 25.0553C12.2844 25.0717 12.2895 25.0896 12.2909 25.108L12.3958 26.2243L13.2546 26.1434L13.1497 25.0271C13.1481 25.0085 13.1502 24.9898 13.1559 24.9721C13.1616 24.9543 13.1707 24.9379 13.1828 24.9238C13.2075 24.8948 13.2419 24.8759 13.2795 24.8708L13.2739 24.8792Z" fill="#0F172A"/>
<path d="M17.1205 28.2836L15.5603 28.3953C15.5417 28.397 15.5229 28.3947 15.5053 28.3884C15.4877 28.3821 15.4716 28.3721 15.4581 28.359C15.4295 28.3343 15.4117 28.2992 15.4084 28.2613L15.1682 24.8371C15.1671 24.8184 15.1698 24.7996 15.1759 24.7819C15.1821 24.7641 15.1917 24.7478 15.2041 24.7339C15.2158 24.7191 15.2304 24.7069 15.2471 24.6983C15.2637 24.6896 15.282 24.6846 15.3007 24.6836L16.3777 24.6055C16.3962 24.6044 16.4148 24.6071 16.4323 24.6133C16.4499 24.6195 16.466 24.6292 16.4798 24.6418C16.4945 24.6536 16.5065 24.6684 16.5151 24.6852C16.5236 24.7021 16.5286 24.7205 16.5295 24.7394L16.6013 25.7497L16.941 25.7246C17.3535 25.6693 17.7727 25.7464 18.1394 25.945C18.2902 26.0441 18.4139 26.1798 18.4993 26.3397C18.5847 26.4996 18.629 26.6787 18.6282 26.8604C18.653 27.0434 18.6338 27.2297 18.5723 27.4036C18.5108 27.5775 18.4087 27.7339 18.2747 27.8594C17.9472 28.1263 17.5411 28.2755 17.1205 28.2836ZM16.6428 26.7404L16.6842 27.3264L17.0514 27.2985C17.0871 27.2993 17.1223 27.2904 17.1534 27.2728C17.1845 27.2551 17.2103 27.2293 17.2282 27.1981C17.2627 27.1271 17.277 27.0479 17.2696 26.9692C17.2687 26.9319 17.2605 26.8951 17.2453 26.8611C17.2301 26.8271 17.2083 26.7965 17.1812 26.7711C17.1332 26.731 17.0723 26.7101 17.01 26.7125L16.6428 26.7404ZM20.1221 28.066L19.0534 28.1441C19.0348 28.1458 19.0161 28.1435 18.9984 28.1372C18.9808 28.131 18.9647 28.1209 18.9513 28.1078C18.9369 28.0966 18.9252 28.0822 18.9171 28.0658C18.909 28.0493 18.9046 28.0313 18.9043 28.0129L18.6641 24.5971C18.6616 24.5785 18.6633 24.5596 18.669 24.5417C18.6748 24.5238 18.6844 24.5075 18.6972 24.4939C18.7089 24.4791 18.7235 24.4669 18.7402 24.4583C18.7569 24.4496 18.7752 24.4446 18.7939 24.4436L19.8597 24.3683C19.8781 24.3665 19.8967 24.3686 19.9143 24.3743C19.9318 24.3801 19.948 24.3894 19.9619 24.4018C19.9763 24.4138 19.9881 24.4287 19.9967 24.4455C20.0052 24.4622 20.0103 24.4806 20.0116 24.4994L20.2519 27.9069C20.2535 27.9253 20.2512 27.9438 20.245 27.9612C20.2388 27.9785 20.2289 27.9943 20.216 28.0074C20.2048 28.0221 20.1907 28.0342 20.1745 28.0429C20.1583 28.0515 20.1404 28.0566 20.1221 28.0576V28.066Z" fill="#0F172A"/>
<path d="M23.5543 25.2641L22.1046 25.3339L22.2234 27.812C22.2244 27.8308 22.2218 27.8495 22.2156 27.8673C22.2095 27.885 22.1999 27.9013 22.1875 27.9153C22.1748 27.9291 22.1594 27.9402 22.1423 27.9479C22.1252 27.9556 22.1068 27.9597 22.0881 27.9599L21.0415 28.0129C21.023 28.014 21.0044 28.0113 20.9868 28.0051C20.9693 27.9989 20.9532 27.9892 20.9393 27.9767C20.912 27.9501 20.8953 27.9144 20.8924 27.8762L20.7295 24.4576C20.7284 24.4388 20.731 24.42 20.7372 24.4023C20.7434 24.3846 20.7529 24.3683 20.7654 24.3543C20.7781 24.3405 20.7935 24.3294 20.8105 24.3217C20.8276 24.314 20.8461 24.3099 20.8648 24.3097L23.5046 24.1785C23.5229 24.178 23.5412 24.1812 23.5582 24.188C23.5753 24.1947 23.5909 24.2047 23.604 24.2176C23.6183 24.2295 23.6299 24.2444 23.638 24.2613C23.6461 24.2781 23.6505 24.2965 23.651 24.3153L23.6897 25.1162C23.6908 25.1351 23.6881 25.1541 23.6819 25.1719C23.6757 25.1898 23.666 25.2063 23.6534 25.2203C23.6408 25.2343 23.6255 25.2457 23.6085 25.2537C23.5915 25.2617 23.5731 25.2662 23.5543 25.2669V25.2641Z" fill="#0F172A"/>
<path d="M24.2641 24.1479L25.8243 24.1005C26.2406 24.0587 26.6588 24.1568 27.0144 24.3795C27.1609 24.4895 27.2787 24.6339 27.3576 24.8002C27.4365 24.9665 27.4741 25.1497 27.4673 25.3339C27.4862 25.5143 27.4603 25.6966 27.3918 25.8643C27.3234 26.0319 27.2145 26.1796 27.0752 26.2939C26.7294 26.5305 26.319 26.6515 25.9016 26.64H25.5619L25.5923 27.653C25.5934 27.6912 25.5795 27.7283 25.5537 27.7563C25.5273 27.7833 25.4918 27.7992 25.4542 27.8009L24.3746 27.8344C24.3378 27.8342 24.3024 27.8203 24.2751 27.7953C24.2609 27.7829 24.2495 27.7675 24.2419 27.7501C24.2342 27.7328 24.2305 27.7139 24.231 27.6949L24.126 24.2735C24.125 24.2353 24.1389 24.1982 24.1647 24.1702C24.1911 24.1432 24.2266 24.1273 24.2641 24.1256V24.1479ZM25.4874 25.0967L25.5067 25.6744H25.8712C25.9026 25.6733 25.9334 25.6657 25.9619 25.6523C25.9904 25.6389 26.0159 25.6198 26.0369 25.5963C26.0615 25.5683 26.0803 25.5356 26.0922 25.5001C26.104 25.4646 26.1087 25.4271 26.1059 25.3898C26.1063 25.3112 26.0832 25.2344 26.0397 25.1693C26.0191 25.1399 25.9911 25.1165 25.9585 25.1018C25.9259 25.0871 25.8901 25.0815 25.8546 25.0856L25.4874 25.0967Z" fill="#0F172A"/>
<path d="M27.934 26.6176H28.4587C28.6326 26.6176 28.7348 26.5897 28.7348 26.5395L27.4811 24.2204C27.4796 24.2074 27.4796 24.1943 27.4811 24.1813C27.4811 24.0976 27.5391 24.053 27.6109 24.053H28.7155C28.7532 24.0526 28.7901 24.0646 28.8205 24.0873C28.8508 24.1099 28.8731 24.142 28.8839 24.1785L29.3865 25.2139L29.7593 24.1646C29.7715 24.1271 29.7952 24.0944 29.827 24.0714C29.8587 24.0483 29.8969 24.036 29.936 24.0362H31.0212C31.037 24.0356 31.0527 24.0383 31.0674 24.044C31.0821 24.0498 31.0955 24.0585 31.1068 24.0697C31.1179 24.0788 31.1269 24.0903 31.1331 24.1033C31.1393 24.1163 31.1426 24.1306 31.1427 24.1451C31.1463 24.1625 31.1463 24.1806 31.1427 24.1981L30.132 26.6762C30.0247 27.0094 29.8345 27.3092 29.5798 27.5469C29.2907 27.7196 28.9565 27.7994 28.6216 27.7757H27.9644C27.946 27.7771 27.9275 27.7743 27.9103 27.7675C27.8931 27.7608 27.8776 27.7502 27.865 27.7367C27.8512 27.7238 27.8403 27.7083 27.8327 27.691C27.8251 27.6738 27.821 27.6551 27.8208 27.6362V26.799C27.8209 26.7613 27.8358 26.7252 27.8622 26.6985C27.8886 26.6715 27.9241 26.6556 27.9616 26.6539L27.934 26.6176Z" fill="#0F172A"/>
<path d="M33.4372 25.2306C33.4372 25.0716 33.3267 24.9906 33.1003 24.9879C33.0196 24.9796 32.9382 24.9911 32.8628 25.0213L32.7579 25.1162C32.7377 25.1367 32.7135 25.1527 32.6869 25.1633C32.6603 25.1739 32.6318 25.1787 32.6032 25.1776H31.5484C31.5335 25.1778 31.5187 25.1749 31.505 25.1691C31.4912 25.1634 31.4787 25.1549 31.4683 25.1441C31.4425 25.1088 31.4307 25.065 31.4352 25.0213C31.4402 24.9409 31.4579 24.8617 31.4877 24.7869C31.5313 24.68 31.5919 24.581 31.6671 24.4939C31.757 24.3898 31.8622 24.3003 31.9792 24.2288C32.1285 24.1398 32.2906 24.0749 32.4597 24.0362C32.6752 23.9864 32.8957 23.962 33.1169 23.9637C33.5463 23.9486 33.9699 24.0685 34.3291 24.3069C34.4707 24.3955 34.5882 24.5185 34.6707 24.6648C34.7531 24.811 34.7981 24.9758 34.8013 25.1441C34.8031 25.3035 34.7578 25.4598 34.6713 25.5931C34.5847 25.7263 34.4607 25.8304 34.3153 25.892C34.4644 25.9417 34.5938 26.0385 34.6843 26.1681C34.7748 26.2978 34.8216 26.4534 34.8179 26.612C34.8155 26.7828 34.7689 26.95 34.6827 27.0969C34.5964 27.2438 34.4735 27.3653 34.3263 27.4493C33.9587 27.681 33.5304 27.7948 33.0975 27.7758C32.8297 27.7772 32.5633 27.7367 32.3078 27.6558C32.1121 27.601 31.9297 27.506 31.7721 27.3767C31.6653 27.2916 31.5774 27.1848 31.5141 27.0632C31.4508 26.9415 31.4136 26.8078 31.4048 26.6706C31.4044 26.6549 31.4075 26.6393 31.4137 26.6248C31.4199 26.6103 31.4291 26.5974 31.4407 26.5869C31.4511 26.5762 31.4636 26.5677 31.4774 26.5619C31.4911 26.5562 31.5059 26.5533 31.5208 26.5534H32.5729C32.6095 26.5561 32.6451 26.5661 32.6779 26.5829C32.7106 26.5997 32.7397 26.6229 32.7634 26.6511C32.8584 26.7255 32.9779 26.7604 33.0975 26.7488C33.3378 26.7488 33.4593 26.6734 33.462 26.5172C33.4648 26.3609 33.3405 26.3413 33.0948 26.3413H32.5646C32.5453 26.3413 32.5263 26.3368 32.509 26.3281C32.4918 26.3194 32.4768 26.3067 32.4652 26.2911C32.4384 26.2625 32.4236 26.2245 32.4238 26.1851V25.5488C32.4241 25.5095 32.4389 25.4717 32.4652 25.4427C32.4774 25.4283 32.4927 25.4168 32.5099 25.4091C32.5271 25.4014 32.5458 25.3976 32.5646 25.3981H33.0948C33.1883 25.4054 33.2823 25.393 33.3709 25.3618C33.3952 25.3502 33.4156 25.3315 33.4294 25.3082C33.4431 25.2848 33.4497 25.2578 33.4482 25.2306H33.4372Z" fill="#0F172A"/>
<path d="M35.837 24.3766L36.08 24.1897C36.2456 24.0613 36.5908 24.0055 37.1182 24.0194C37.5766 24.0056 38.0248 24.157 38.3829 24.4464C38.539 24.5841 38.6612 24.7567 38.7398 24.9505C38.8184 25.1442 38.8513 25.3538 38.8358 25.5627L38.8165 26.3999C38.8238 26.6089 38.7821 26.8168 38.6948 27.0064C38.6074 27.1961 38.4769 27.3622 38.3139 27.4911C37.9368 27.7518 37.4826 27.874 37.0271 27.8371C36.5709 27.8489 36.1242 27.7043 35.7596 27.4269C35.6035 27.2896 35.4818 27.1168 35.4045 26.9228C35.3272 26.7287 35.2966 26.5189 35.3151 26.3106L35.3344 25.4734C35.3257 25.26 35.3672 25.0475 35.4556 24.8535C35.5439 24.6594 35.6765 24.4893 35.8425 24.3571L35.837 24.3766ZM36.7675 26.6873L36.82 26.7404C36.8869 26.7872 36.9683 26.808 37.0492 26.799C37.1503 26.8042 37.2495 26.7691 37.3253 26.7013C37.3644 26.6581 37.3946 26.6075 37.4141 26.5524C37.4335 26.4973 37.4418 26.4388 37.4385 26.3804L37.4606 25.4901C37.4664 25.4324 37.4608 25.3741 37.4442 25.3185C37.4276 25.263 37.4004 25.2113 37.364 25.1664C37.3278 25.1298 37.2847 25.1008 37.2373 25.0812C37.1899 25.0615 37.1391 25.0516 37.0878 25.052C37.0375 25.0493 36.9872 25.0568 36.9397 25.074C36.8923 25.0913 36.8488 25.118 36.8117 25.1524C36.7342 25.2394 36.6935 25.3536 36.6985 25.4706L36.6764 26.3608C36.6652 26.4782 36.6999 26.5954 36.7731 26.6873H36.7675Z" fill="#0F172A"/>
<path d="M41.3294 25.5488L41.357 25.5153C41.3811 25.4772 41.3927 25.4322 41.3901 25.387C41.3944 25.3247 41.3778 25.2628 41.3432 25.2112C41.3258 25.1859 41.3027 25.1651 41.2758 25.1505C41.2489 25.136 41.219 25.1281 41.1885 25.1274L40.7467 25.1079L40.7246 25.5879L41.1664 25.6102C41.1965 25.6136 41.2268 25.6097 41.2551 25.5991C41.2834 25.5884 41.3088 25.5712 41.3294 25.5488ZM40.686 26.4726L40.6639 26.9916L41.1499 27.0167C41.1844 27.0199 41.2192 27.0148 41.2514 27.0017C41.2836 26.9886 41.3122 26.9679 41.3349 26.9414C41.3764 26.8899 41.4006 26.8263 41.4039 26.76C41.4076 26.6952 41.3869 26.6314 41.3459 26.5814C41.3243 26.5559 41.2977 26.5353 41.2677 26.5209C41.2378 26.5065 41.2051 26.4986 41.172 26.4977L40.686 26.4726ZM41.2382 27.9321L39.4461 27.8484C39.4278 27.8484 39.4096 27.8445 39.393 27.8367C39.3763 27.829 39.3614 27.8178 39.3495 27.8037C39.3361 27.7903 39.3258 27.7741 39.3191 27.7563C39.3125 27.7385 39.3096 27.7195 39.3108 27.7005L39.471 24.2791C39.4739 24.2409 39.4906 24.2051 39.5179 24.1786C39.5317 24.166 39.5479 24.1564 39.5654 24.1501C39.5829 24.1439 39.6015 24.1413 39.6201 24.1423L41.3597 24.2205C41.7479 24.213 42.1282 24.3313 42.445 24.5581C42.5601 24.6619 42.6488 24.7922 42.7035 24.9379C42.7583 25.0836 42.7776 25.2405 42.7597 25.3953C42.7565 25.5417 42.7039 25.6825 42.6106 25.7944C42.5314 25.8978 42.4292 25.9809 42.3124 26.0372C42.4541 26.1073 42.5722 26.2179 42.6521 26.3553C42.7394 26.4974 42.7827 26.6626 42.7763 26.8298C42.7413 27.6056 42.2314 27.9712 41.2465 27.9265L41.2382 27.9321Z" fill="#0F172A"/>
<path d="M44.9273 28.1441L43.3699 28.0353C43.3513 28.0354 43.3329 28.0312 43.3161 28.023C43.2994 28.0147 43.2847 28.0027 43.2733 27.9879C43.2603 27.9743 43.2504 27.958 43.2442 27.9402C43.238 27.9224 43.2356 27.9034 43.2374 27.8846L43.4693 24.4688C43.4707 24.4501 43.4758 24.4318 43.4842 24.4151C43.4926 24.3984 43.5041 24.3835 43.5183 24.3713C43.5324 24.3591 43.5487 24.3498 43.5664 24.3441C43.5841 24.3383 43.6027 24.3361 43.6212 24.3376L44.6981 24.4102C44.7168 24.4115 44.7349 24.4167 44.7516 24.4253C44.7682 24.4339 44.7829 24.4459 44.7948 24.4604C44.8187 24.4893 44.8314 24.526 44.8307 24.5637L44.7616 25.5739L45.1013 25.5962C45.5183 25.6012 45.9235 25.7367 46.2611 25.9841C46.3945 26.1054 46.4967 26.2578 46.5587 26.428C46.6208 26.5982 46.6409 26.7811 46.6173 26.9609C46.6162 27.1453 46.5712 27.3268 46.4862 27.49C46.4011 27.6532 46.2784 27.7933 46.1285 27.8986C45.7659 28.1121 45.3436 28.1984 44.9273 28.1441ZM44.6678 26.5507L44.6291 27.1367L44.9936 27.1618C45.0291 27.1673 45.0654 27.1632 45.0989 27.15C45.1323 27.1367 45.1617 27.1148 45.1841 27.0865C45.2283 27.0214 45.2532 26.9449 45.2559 26.866C45.2606 26.829 45.2579 26.7914 45.2479 26.7554C45.238 26.7195 45.221 26.6859 45.1979 26.6567C45.1776 26.6328 45.1526 26.6134 45.1246 26.5995C45.0966 26.5856 45.0662 26.5775 45.035 26.5758L44.6678 26.5507ZM47.9317 28.3534L46.863 28.2809C46.8257 28.277 46.7912 28.2591 46.7664 28.2307C46.7425 28.2017 46.7297 28.1651 46.7305 28.1274L46.9624 24.7116C46.9663 24.6739 46.984 24.639 47.0121 24.6139C47.0408 24.5898 47.077 24.5769 47.1143 24.5776L48.183 24.653C48.2204 24.6563 48.2552 24.6743 48.2796 24.7032C48.2918 24.7172 48.3011 24.7336 48.3068 24.7514C48.3125 24.7691 48.3145 24.7879 48.3127 24.8065L48.0808 28.2223C48.0794 28.2407 48.0743 28.2586 48.0658 28.275C48.0572 28.2913 48.0454 28.3057 48.0311 28.3172C48.0182 28.3302 48.0026 28.3402 47.9854 28.3465C47.9682 28.3528 47.9499 28.3552 47.9317 28.3534Z" fill="#0F172A"/>
<path d="M50.0551 27.5051L51.6622 27.653C51.6809 27.6543 51.699 27.6595 51.7157 27.6681C51.7323 27.6767 51.747 27.6887 51.7589 27.7032C51.7709 27.7173 51.7798 27.7338 51.7851 27.7516C51.7903 27.7694 51.7917 27.7881 51.7893 27.8065L51.723 28.5516C51.7188 28.5893 51.7004 28.624 51.6716 28.6484C51.6428 28.6729 51.6059 28.6851 51.5684 28.6828L48.8484 28.4288C48.8298 28.4275 48.8116 28.4223 48.795 28.4137C48.7784 28.4051 48.7637 28.3931 48.7518 28.3786C48.7287 28.3495 48.7177 28.3124 48.7214 28.2753L49.0307 24.8651C49.032 24.8463 49.0371 24.8279 49.0456 24.8111C49.0542 24.7943 49.066 24.7795 49.0804 24.7674C49.0947 24.7551 49.1115 24.7459 49.1296 24.7406C49.1477 24.7353 49.1667 24.734 49.1853 24.7367L51.8638 24.9851C51.8821 24.9865 51.8998 24.9916 51.916 25.0003C51.9321 25.0089 51.9463 25.0209 51.9577 25.0353C51.9698 25.0494 51.9789 25.0658 51.9846 25.0836C51.9903 25.1013 51.9924 25.12 51.9908 25.1386L51.9135 25.8837C51.9125 25.9022 51.9075 25.9203 51.899 25.9366C51.8904 25.953 51.8784 25.9673 51.8638 25.9786C51.8504 25.9917 51.8343 26.0017 51.8167 26.008C51.799 26.0143 51.7803 26.0166 51.7616 26.0149L50.1932 25.867L50.1628 26.199L51.6153 26.3358C51.634 26.3372 51.6522 26.3423 51.6688 26.351C51.6854 26.3597 51.7001 26.3718 51.712 26.3864C51.7239 26.401 51.7327 26.4179 51.7379 26.4361C51.7431 26.4542 51.7446 26.4733 51.7423 26.4921L51.6816 27.1758C51.6798 27.1945 51.6745 27.2127 51.6657 27.2293C51.657 27.2459 51.6451 27.2606 51.6307 27.2726C51.6164 27.2845 51.5998 27.2934 51.582 27.2989C51.5641 27.3043 51.5454 27.3061 51.5269 27.3042L50.0745 27.1702L50.0551 27.5051Z" fill="#0F172A"/>
<path d="M52.5513 27.5664L53.457 27.6641C53.4757 27.665 53.4938 27.6703 53.5101 27.6795C53.5264 27.6887 53.5404 27.7016 53.5509 27.7171C53.563 27.7312 53.5722 27.7476 53.5778 27.7653C53.5835 27.7831 53.5857 27.8018 53.5841 27.8204L53.4874 28.7441C53.4833 28.7814 53.4647 28.8155 53.4357 28.8391C53.4067 28.8626 53.3697 28.8736 53.3328 28.8697L52.4243 28.7748C52.3873 28.7704 52.3535 28.7513 52.3304 28.7218C52.3183 28.7072 52.3094 28.6902 52.3042 28.672C52.2989 28.6537 52.2975 28.6345 52.3 28.6157L52.3939 27.7004C52.3982 27.6621 52.417 27.6271 52.4464 27.6027C52.4766 27.5801 52.5138 27.5692 52.5513 27.572V27.5664Z" fill="#0F172A"/>
<path d="M54.675 25.2837L56.2269 25.4707C56.6451 25.4967 57.043 25.6615 57.359 25.9395C57.4872 26.0709 57.5823 26.2315 57.6361 26.4078C57.6899 26.5842 57.701 26.771 57.6683 26.9525C57.6581 27.134 57.6043 27.3102 57.5114 27.4658C57.4185 27.6214 57.2894 27.7518 57.1354 27.8456C56.7586 28.025 56.3359 28.0816 55.9259 28.0074L55.5863 27.9656L55.4675 28.9702C55.4656 28.9888 55.46 29.0068 55.451 29.0231C55.442 29.0395 55.4297 29.0537 55.415 29.0651C55.4007 29.0774 55.384 29.0866 55.3659 29.0919C55.3478 29.0972 55.3288 29.0985 55.3101 29.0958L54.2387 28.9674C54.2201 28.9652 54.2021 28.9591 54.186 28.9495C54.1698 28.9399 54.1558 28.927 54.1448 28.9116C54.1328 28.8975 54.1239 28.8811 54.1187 28.8633C54.1134 28.8455 54.112 28.8267 54.1144 28.8083L54.5176 25.4093C54.522 25.3719 54.5409 25.3378 54.5701 25.3144C54.5845 25.3022 54.6013 25.2931 54.6193 25.2879C54.6374 25.2826 54.6564 25.2812 54.675 25.2837ZM55.7464 26.4L55.6774 26.9832L56.0419 27.0279C56.0727 27.0322 56.1042 27.03 56.1341 27.0213C56.1641 27.0127 56.1919 26.9978 56.2158 26.9776C56.2438 26.9536 56.2667 26.9243 56.2833 26.8912C56.2999 26.8581 56.3098 26.8221 56.3125 26.7851C56.3246 26.7074 56.314 26.6279 56.2821 26.5563C56.2657 26.5241 56.2413 26.4969 56.2113 26.4773C56.1812 26.4577 56.1466 26.4465 56.1109 26.4446L55.7464 26.4Z" fill="#0F172A"/>
<path d="M60.6698 26.439C61.0493 26.5488 61.389 26.768 61.6473 27.0697C61.7608 27.211 61.8427 27.3754 61.8875 27.5517C61.9323 27.728 61.9389 27.912 61.9069 28.0911C61.8879 28.2735 61.8314 28.4499 61.741 28.6089C61.6507 28.768 61.5285 28.9062 61.3822 29.0148C61.0567 29.2406 60.6724 29.3639 60.2777 29.3692L60.2307 29.6985C60.2254 29.7362 60.2055 29.7703 60.1755 29.7934C60.161 29.8054 60.1442 29.8142 60.1261 29.819C60.1079 29.8238 60.089 29.8246 60.0706 29.8213L59.1566 29.6929C59.1385 29.6902 59.1211 29.6839 59.1055 29.6743C59.0898 29.6647 59.0762 29.6521 59.0654 29.6371C59.0537 29.6224 59.0452 29.6054 59.0404 29.5871C59.0356 29.5688 59.0348 29.5497 59.0378 29.5311L59.082 29.1962C58.7052 29.0744 58.3726 28.8423 58.1266 28.5292C58.0182 28.3847 57.9402 28.2193 57.8974 28.0431C57.8547 27.867 57.8481 27.6838 57.8781 27.505C57.8962 27.3265 57.9519 27.154 58.0414 26.999C58.131 26.844 58.2523 26.7101 58.3972 26.6064C58.724 26.3845 59.108 26.2642 59.5017 26.2604L59.5459 25.9311C59.5514 25.8935 59.5712 25.8596 59.6012 25.8366C59.6311 25.8137 59.6688 25.8035 59.7061 25.8083L60.6201 25.9394C60.6387 25.9417 60.6567 25.9478 60.6728 25.9574C60.689 25.967 60.703 25.9799 60.714 25.9953C60.7355 26.0261 60.7454 26.0638 60.7416 26.1013L60.6698 26.439ZM60.3771 28.3618C60.473 28.3383 60.5592 28.285 60.6236 28.2094C60.688 28.1338 60.7273 28.0397 60.7361 27.9404C60.755 27.8442 60.7426 27.7444 60.7008 27.6559C60.659 27.5674 60.59 27.4949 60.5041 27.4492L60.3771 28.3618ZM59.3692 27.2874C59.2736 27.3075 59.187 27.3583 59.1223 27.4322C59.0576 27.5062 59.0183 27.5992 59.0102 27.6976C58.9908 27.7957 59.0031 27.8975 59.0454 27.988C59.0877 28.0784 59.1576 28.1527 59.2449 28.1999L59.3692 27.2874Z" fill="#0F172A"/>
<path fill-rule="evenodd" clip-rule="evenodd" d="M64 23.0595C42.7979 19.6771 21.2021 19.6771 0 23.0595L0.140829 23.972C21.2486 20.6037 42.7486 20.6037 63.8564 23.972L64 23.0595Z" fill="#0F172A"/>
<path fill-rule="evenodd" clip-rule="evenodd" d="M1.61275 33.4548C21.7454 30.2427 42.2521 30.2427 62.3847 33.4548L62.5256 32.545C42.2995 29.319 21.698 29.319 1.47192 32.545L1.61275 33.4548Z" fill="#0F172A"/>
<path fill-rule="evenodd" clip-rule="evenodd" d="M7.38394 16.4902C10.1468 9.89666 15.3855 4.68037 21.9501 1.98635C28.5146 -0.707659 35.8687 -0.659258 42.398 2.12093C46.3458 3.80914 49.8346 6.43103 52.5708 9.76596C55.307 13.1009 57.2105 17.0513 58.1211 21.2847L57.1602 21.1647C56.8239 19.6881 56.3619 18.2436 55.7795 16.8474C53.8023 12.1264 50.4928 8.09851 46.2643 5.26678C42.0357 2.43504 37.0755 0.924894 32.0028 0.924894C26.9302 0.924894 21.9699 2.43504 17.7414 5.26678C13.5128 8.09851 10.2034 12.1264 8.22615 16.8474C7.64128 18.2427 7.17926 19.6874 6.84547 21.1647L5.88452 21.2847C6.23586 19.6422 6.73974 18.037 7.38946 16.4902H7.38394ZM6.11371 33.7228C7.14398 37.7468 9.07653 41.4774 11.7618 44.6257C14.4471 47.7741 17.8131 50.2559 21.5994 51.8791C28.1282 54.656 35.4803 54.7027 42.0431 52.009C48.606 49.3152 53.8438 44.101 56.6079 37.5098C57.1236 36.2813 57.5473 35.0154 57.8754 33.7228L56.9641 33.6028C55.9585 37.4668 54.0901 41.0466 51.5023 44.0672C48.9146 47.0879 45.6764 49.469 42.0362 51.0279C35.7308 53.7139 28.6284 53.7611 22.2886 51.159C15.9489 48.5569 10.8902 43.5183 8.22339 37.1498C7.7402 35.998 7.33969 34.8127 7.02496 33.6028L6.11371 33.7228Z" fill="#0F172A"/>
</g>
<defs>
<clipPath id="clip0_98_6000">
<rect width="64" height="54" fill="white"/>
</clipPath>
</defs>
</svg>
