<svg width="20" height="20" viewBox="0 0 20 20" fill="none" xmlns="http://www.w3.org/2000/svg">
<path fill-rule="evenodd" clip-rule="evenodd" d="M5.86184 2.36661C6.6454 2.04205 7.48521 1.875 8.33333 1.875C9.18145 1.875 10.0213 2.04205 10.8048 2.36661C11.5884 2.69117 12.3004 3.16689 12.9001 3.7666C13.4998 4.36631 13.9755 5.07827 14.3001 5.86184C14.6246 6.6454 14.7917 7.48521 14.7917 8.33333C14.7917 9.18145 14.6246 10.0213 14.3001 10.8048C13.9755 11.5884 13.4998 12.3004 12.9001 12.9001C12.3004 13.4998 11.5884 13.9755 10.8048 14.3001C10.0213 14.6246 9.18145 14.7917 8.33333 14.7917C7.48521 14.7917 6.6454 14.6246 5.86184 14.3001C5.07827 13.9755 4.36631 13.4998 3.7666 12.9001C3.16689 12.3004 2.69117 11.5884 2.36661 10.8048C2.04205 10.0213 1.875 9.18145 1.875 8.33333C1.875 7.48521 2.04205 6.6454 2.36661 5.86184C2.69117 5.07828 3.16689 4.36631 3.7666 3.7666C4.36631 3.16689 5.07828 2.69117 5.86184 2.36661ZM8.33333 3.125C7.64937 3.125 6.9721 3.25972 6.34019 3.52146C5.70829 3.7832 5.13412 4.16685 4.65049 4.65049C4.16685 5.13412 3.7832 5.70829 3.52146 6.34019C3.25972 6.9721 3.125 7.64937 3.125 8.33333C3.125 9.0173 3.25972 9.69457 3.52146 10.3265C3.7832 10.9584 4.16685 11.5325 4.65049 12.0162C5.13412 12.4998 5.70829 12.8835 6.34019 13.1452C6.97209 13.4069 7.64936 13.5417 8.33333 13.5417C9.0173 13.5417 9.69457 13.4069 10.3265 13.1452C10.9584 12.8835 11.5325 12.4998 12.0162 12.0162C12.4998 11.5325 12.8835 10.9584 13.1452 10.3265C13.4069 9.69457 13.5417 9.0173 13.5417 8.33333C13.5417 7.64936 13.4069 6.97209 13.1452 6.34019C12.8835 5.70829 12.4998 5.13412 12.0162 4.65049C11.5325 4.16685 10.9584 3.7832 10.3265 3.52146C9.69457 3.25972 9.0173 3.125 8.33333 3.125Z" fill="#475569"/>
<path fill-rule="evenodd" clip-rule="evenodd" d="M12.0581 12.0581C12.3021 11.814 12.6979 11.814 12.9419 12.0581L17.9419 17.0581C18.186 17.3021 18.186 17.6979 17.9419 17.9419C17.6979 18.186 17.3021 18.186 17.0581 17.9419L12.0581 12.9419C11.814 12.6979 11.814 12.3021 12.0581 12.0581Z" fill="#475569"/>
</svg>
