<svg width="24" height="24" viewBox="0 0 24 24" fill="none" xmlns="http://www.w3.org/2000/svg">
<g clip-path="url(#clip0_98_5447)">
<path d="M10 4L12 5L14 4" stroke="#22D3EE" stroke-width="1.5" stroke-linecap="round" stroke-linejoin="round"/>
<path d="M12 2V8.5L15 10.22" stroke="#22D3EE" stroke-width="1.5" stroke-linecap="round" stroke-linejoin="round"/>
<path d="M17.928 6.26794L18.062 8.49994L19.928 9.73194" stroke="#22D3EE" stroke-width="1.5" stroke-linecap="round" stroke-linejoin="round"/>
<path d="M20.66 7L15.031 10.25L15.041 13.708" stroke="#22D3EE" stroke-width="1.5" stroke-linecap="round" stroke-linejoin="round"/>
<path d="M19.928 14.2679L18.062 15.4999L17.928 17.7319" stroke="#22D3EE" stroke-width="1.5" stroke-linecap="round" stroke-linejoin="round"/>
<path d="M20.66 17L15.031 13.75L12.041 15.488" stroke="#22D3EE" stroke-width="1.5" stroke-linecap="round" stroke-linejoin="round"/>
<path d="M14 20L12 19L10 20" stroke="#22D3EE" stroke-width="1.5" stroke-linecap="round" stroke-linejoin="round"/>
<path d="M12 22V15.5L9 13.78" stroke="#22D3EE" stroke-width="1.5" stroke-linecap="round" stroke-linejoin="round"/>
<path d="M6.07202 17.7319L5.93802 15.4999L4.07202 14.2679" stroke="#22D3EE" stroke-width="1.5" stroke-linecap="round" stroke-linejoin="round"/>
<path d="M3.34009 17L8.96909 13.75L8.95909 10.292" stroke="#22D3EE" stroke-width="1.5" stroke-linecap="round" stroke-linejoin="round"/>
<path d="M4.07202 9.73194L5.93802 8.49994L6.07202 6.26794" stroke="#22D3EE" stroke-width="1.5" stroke-linecap="round" stroke-linejoin="round"/>
<path d="M3.34009 7L8.96909 10.25L11.9591 8.512" stroke="#22D3EE" stroke-width="1.5" stroke-linecap="round" stroke-linejoin="round"/>
</g>
<defs>
<clipPath id="clip0_98_5447">
<rect width="24" height="24" fill="white"/>
</clipPath>
</defs>
</svg>
