<svg width="20" height="20" viewBox="0 0 20 20" fill="none" xmlns="http://www.w3.org/2000/svg">
<path fill-rule="evenodd" clip-rule="evenodd" d="M5.39139 3.72481C5.63547 3.48073 6.0312 3.48073 6.27528 3.72481L9.60861 7.05814C9.85269 7.30222 9.85269 7.69795 9.60861 7.94202C9.36453 8.1861 8.9688 8.1861 8.72472 7.94202L6.45833 5.67563V15.8334C6.45833 16.1786 6.17851 16.4584 5.83333 16.4584C5.48816 16.4584 5.20833 16.1786 5.20833 15.8334V5.67563L2.94194 7.94202C2.69786 8.1861 2.30214 8.1861 2.05806 7.94202C1.81398 7.69795 1.81398 7.30222 2.05806 7.05814L5.39139 3.72481Z" fill="#475569"/>
<path fill-rule="evenodd" clip-rule="evenodd" d="M14.1667 3.54175C14.5119 3.54175 14.7917 3.82157 14.7917 4.16675V14.3245L17.0581 12.0581C17.3022 11.8141 17.6979 11.8141 17.942 12.0581C18.1861 12.3022 18.1861 12.6979 17.942 12.942L14.6086 16.2754C14.3646 16.5194 13.9688 16.5194 13.7248 16.2754L10.3914 12.942C10.1474 12.6979 10.1474 12.3022 10.3914 12.0581C10.6355 11.8141 11.0312 11.8141 11.2753 12.0581L13.5417 14.3245V4.16675C13.5417 3.82157 13.8215 3.54175 14.1667 3.54175Z" fill="#475569"/>
</svg>
