<svg width="24" height="24" viewBox="0 0 24 24" fill="none" xmlns="http://www.w3.org/2000/svg">
<path d="M12.75 2C12.75 1.58579 12.4142 1.25 12 1.25C11.5858 1.25 11.25 1.58579 11.25 2V4C11.25 4.41421 11.5858 4.75 12 4.75C12.4142 4.75 12.75 4.41421 12.75 4V2Z" fill="#F59E0B"/>
<path d="M5.45937 4.39867C5.16647 4.10577 4.6916 4.10577 4.39871 4.39867C4.10581 4.69156 4.10581 5.16643 4.39871 5.45933L5.81271 6.87333C6.1056 7.16622 6.58047 7.16622 6.87337 6.87333C7.16626 6.58043 7.16626 6.10556 6.87337 5.81267L5.45937 4.39867Z" fill="#F59E0B"/>
<path fill-rule="evenodd" clip-rule="evenodd" d="M12.0079 7.20103C12.6386 7.19555 13.2641 7.31573 13.8478 7.55456C14.4316 7.7934 14.9619 8.1461 15.4079 8.59209C15.8539 9.03808 16.2066 9.56843 16.4454 10.1522C16.6843 10.7359 16.8045 11.3614 16.799 11.9921C16.7935 12.6228 16.6625 13.2461 16.4135 13.8256C16.1646 14.4052 15.8027 14.9293 15.349 15.3675C14.4532 16.2327 13.2533 16.7115 12.0079 16.7007C10.7624 16.6898 9.57108 16.1903 8.6904 15.3096C7.80971 14.4289 7.31016 13.2376 7.29933 11.9921C7.28851 10.7467 7.76728 9.54683 8.63253 8.65097C9.07071 8.19729 9.59484 7.83543 10.1744 7.58648C10.7539 7.33754 11.3772 7.20651 12.0079 7.20103ZM13.2798 8.94286C12.8804 8.77945 12.4524 8.69722 12.0209 8.70097C11.5894 8.70472 11.1629 8.79437 10.7664 8.9647C10.3699 9.13503 10.0113 9.38263 9.71147 9.69303C9.11945 10.306 8.79187 11.1269 8.79928 11.9791C8.80668 12.8312 9.14848 13.6464 9.75106 14.2489C10.3536 14.8515 11.1688 15.1933 12.0209 15.2007C12.8731 15.2081 13.694 14.8805 14.307 14.2885C14.6174 13.9887 14.865 13.6301 15.0353 13.2336C15.2056 12.8371 15.2953 12.4106 15.299 11.9791C15.3028 11.5476 15.2206 11.1196 15.0571 10.7202C14.8937 10.3208 14.6524 9.9579 14.3473 9.65275C14.0421 9.3476 13.6792 9.10628 13.2798 8.94286Z" fill="#F59E0B"/>
<path d="M6.87337 17.1267C7.16626 17.4196 7.16626 17.8944 6.87337 18.1873L5.45937 19.6013C5.16647 19.8942 4.6916 19.8942 4.39871 19.6013C4.10581 19.3084 4.10581 18.8336 4.39871 18.5407L5.81271 17.1267C6.1056 16.8338 6.58047 16.8338 6.87337 17.1267Z" fill="#F59E0B"/>
<path d="M19.6012 4.39867C19.8941 4.69156 19.8941 5.16643 19.6012 5.45933L18.1872 6.87333C17.8943 7.16622 17.4195 7.16622 17.1266 6.87333C16.8337 6.58043 16.8337 6.10556 17.1266 5.81267L18.5406 4.39867C18.8335 4.10577 19.3083 4.10577 19.6012 4.39867Z" fill="#F59E0B"/>
<path d="M18.1872 17.1267C17.8943 16.8338 17.4195 16.8338 17.1266 17.1267C16.8337 17.4196 16.8337 17.8944 17.1266 18.1873L18.5406 19.6013C18.8335 19.8942 19.3083 19.8942 19.6012 19.6013C19.8941 19.3084 19.8941 18.8336 19.6012 18.5407L18.1872 17.1267Z" fill="#F59E0B"/>
<path d="M1.25 12C1.25 11.5858 1.58579 11.25 2 11.25H4C4.41421 11.25 4.75 11.5858 4.75 12C4.75 12.4142 4.41421 12.75 4 12.75H2C1.58579 12.75 1.25 12.4142 1.25 12Z" fill="#F59E0B"/>
<path d="M19.25 12C19.25 11.5858 19.5858 11.25 20 11.25H22C22.4142 11.25 22.75 11.5858 22.75 12C22.75 12.4142 22.4142 12.75 22 12.75H20C19.5858 12.75 19.25 12.4142 19.25 12Z" fill="#F59E0B"/>
<path d="M12.75 20C12.75 19.5858 12.4142 19.25 12 19.25C11.5858 19.25 11.25 19.5858 11.25 20V22C11.25 22.4142 11.5858 22.75 12 22.75C12.4142 22.75 12.75 22.4142 12.75 22V20Z" fill="#F59E0B"/>
</svg>
