<svg width="305" height="499" viewBox="0 0 305 499" fill="none" xmlns="http://www.w3.org/2000/svg">
<path d="M169.963 335.682C169.339 336.306 168.714 336.931 167.92 337.423L165.176 339.601L166.458 341.223C169.144 339.634 172.26 338.935 175.361 339.225L176.346 337.523C175.008 335.881 173.235 333.692 171.293 331.258C171.651 331.994 171.971 332.844 172.347 333.486L169.963 335.682ZM152.155 285.094C153.715 284.541 155.423 284.578 156.954 285.199C155.619 280.809 154.541 276.345 153.726 271.828L144.498 287.733L144.29 287.941L142.49 291.024C143.197 295.523 144.142 299.98 145.321 304.377L149.595 301.876L150.026 304.162L145.865 306.247C146.147 307.172 146.41 308.154 146.673 308.985L148.073 308.189L147.765 311.666C154.02 310.957 159.752 306.507 165.914 304.834C164.84 303.343 163.803 301.89 162.936 300.569C162.902 300.528 162.864 300.49 162.823 300.456C161.687 300.203 160.59 299.805 159.556 299.271C159.066 299.007 159.259 296.286 159.564 294.736C159.662 294.54 159.822 294.381 160.018 294.282C159.303 292.545 158.551 290.544 157.723 288.202L155.588 288.565C157.06 300.409 156.128 304.246 151.97 305.009C149.939 299.193 153.556 294.671 155.588 288.565L148.689 289.766C149.782 291.692 150.29 292.579 150.856 293.523L149.266 295.113C146.793 294.04 145.282 293.4 143.96 292.873C146.761 290.223 149.299 286.44 152.155 285.094ZM164.789 322.634L164.657 322.162L164.562 322.937L164.789 322.634ZM67.4625 437.805L71.8332 434.113L63.0284 434.203L63.0347 430.425L61.9757 430.993C62.5555 434.525 63.2115 437.718 64.0191 440.607L66.0626 438.865C65.9324 437.6 65.6704 436.089 65.503 434.521C66.2565 435.88 66.8404 436.956 67.5003 437.843L67.4625 437.805ZM154.838 353.146L145.484 354.012L145.426 354.598L146.199 355.598L148.541 356.01L147.217 356.881C150.498 361.145 153.873 365.315 156.437 368.448L159.017 362.095L162.646 361.371L163.044 360.671C161.026 358.237 158.085 354.614 154.993 350.69C154.801 351.507 154.761 352.353 154.875 353.184L154.838 353.146ZM159.979 329.142C160.621 329.216 161.339 329.631 161.906 329.29C162.871 328.506 163.753 327.624 164.537 326.659L164.002 329.91C166.002 329.442 168.066 329.317 170.106 329.541C170.158 329.575 170.203 329.62 170.238 329.673C168.748 327.767 167.164 325.767 165.581 323.729C164.087 324.544 162.649 325.378 161.25 326.287C160.682 326.741 160.359 328.159 159.922 329.085L159.979 329.142ZM13.0508 379.04L12.935 380.476C13.0668 380.038 13.1623 379.589 13.2207 379.134C13.1835 379.049 13.1394 378.967 13.0888 378.889L13.0508 379.04ZM34.4783 389.415C35.1385 390.075 35.7987 390.736 36.3646 391.302C35.8747 390.509 35.2144 389.886 34.5164 389.264L34.4783 389.415ZM41.5698 397.074L35.2391 397.784C36.3205 396.09 37.8727 394.748 39.7045 393.922L36.6484 391.093C36.1545 392.681 35.6606 394.269 35.2045 395.857C34.5255 395.178 33.7706 394.612 33.0537 393.971L35.651 400.051L38.4091 400.311L38.329 402.994C37.8002 402.881 37.2714 402.731 36.7426 402.581L38.1542 405.885L42.0007 399.247L41.5698 397.074ZM43.0997 397.393L42.8922 397.186C42.9003 397.344 42.919 397.502 42.9481 397.658L43.0997 397.393ZM26.3909 378.489C26.1457 378.244 25.7871 378.074 25.504 377.867L25.4468 378.15L25.938 378.187C25.938 378.187 26.1455 378.395 26.3341 378.584L26.3909 378.489ZM26.018 375.542C24.8948 374.433 23.9362 373.168 23.1712 371.787L22.6611 371.769C22.2247 371.656 21.81 371.471 21.4339 371.223C21.3024 370.789 21.1897 370.373 21.0959 369.939L22.2114 369.54L22.0605 369.389C21.3622 368.88 20.6641 368.333 19.9093 367.768L19.8346 367.201L19.3813 367.089L20.9056 370.808C21.4613 372.926 22.2434 374.977 23.2382 376.926C23.957 376.471 24.6569 375.96 25.4133 375.581C25.611 375.471 25.8305 375.406 26.0561 375.391L26.018 375.542ZM80.277 412.541L77.2094 416.627C77.6221 418.403 78.0475 420.09 78.4857 421.689L90.5516 414.829L90.3277 413.129C88.7229 412.432 87.5168 410.507 85.2058 414.101C84.0123 416.011 81.5177 416.356 78.889 417.815L80.7672 413.183L80.277 412.541ZM80.0183 409.027C80.7781 406.645 81.4463 402.468 82.3727 402.146C84.5279 401.349 86.7606 399.455 88.8784 398.469C87.9957 395.278 87.1702 391.765 86.4399 387.817L77.1172 403.893C76.3375 406.898 77.1864 407.709 80.056 409.103L80.0183 409.027ZM73.6149 430.747L72.6988 424.873L75.8003 423.205L74.6738 418.899L70.9733 417.242C69.2027 425.313 69.8381 429.506 73.6525 430.823L73.6149 430.747ZM0.0263839 371.504C0.0909488 371.552 0.148144 371.609 0.196147 371.674L0.309697 371.561L0.0263839 371.504ZM100.006 364.782L99.7415 365.047L99.9496 364.838C99.9496 364.838 99.9875 364.801 100.006 364.782ZM112.823 349.664C113.242 348.852 113.904 348.19 114.715 347.771C114.246 345.788 113.796 343.673 113.441 341.501L104.308 357.085C104.627 356.929 104.916 356.717 105.159 356.46C107.639 353.867 112.112 356.788 112.747 349.588L112.823 349.664ZM91.7418 369.538C91.2284 370.177 90.5852 370.701 89.8548 371.073C89.1245 371.446 88.3238 371.659 87.5059 371.699C87.6531 374.041 87.8572 376.327 88.1557 378.594L93.4044 369.573C92.5737 369.196 91.9504 369.065 91.6097 369.406L91.7418 369.538ZM88.8458 384.015C89.5797 388.749 90.5875 393.434 91.8643 398.049C92.37 398.131 92.8527 398.317 93.2817 398.596C93.7106 398.875 94.0764 399.241 94.3557 399.67L100.545 393.254L100.097 389.665C101.213 389.229 102.309 388.698 103.368 388.167C103.219 387.374 103.05 386.637 102.9 385.806C103.352 386.523 103.729 387.165 104.125 387.826C104.843 387.484 105.543 387.124 106.243 386.84C105.791 385.744 105.34 384.498 104.851 383.139C104.238 383.685 103.484 384.046 102.676 384.181C101.485 384.278 100.544 382.541 98.8835 381.032L104.061 380.835C103.252 378.361 102.483 375.472 101.638 372.355C98.0411 376.329 95.1286 377.997 92.6164 377.604L90.9299 380.536L91.1751 380.781C90.9101 381.046 90.6452 381.311 90.3802 381.576L88.8458 384.015ZM133.828 409.315C131.484 410.188 129.253 411.061 127.022 411.934C127.645 412.557 128.134 413.349 128.7 414.029L132.442 413.342L136.061 407.158C135.401 406.498 134.76 405.592 134.044 404.686C134.159 406.232 134.087 407.786 133.828 409.315ZM115.471 325.437L118.265 326.415L121.998 319.966L115.471 325.437ZM178.594 235.906C177.044 236.287 175.475 236.762 173.906 237.237L169.51 244.839C170.909 255.451 174.012 265.763 178.698 275.376C179.641 276.772 180.753 278.339 181.959 279.962L183.644 278.277C184.079 277.842 184.815 278.162 185.42 277.972C187.524 277.502 189.567 276.789 191.508 275.846C191.44 275.561 191.431 275.265 191.48 274.976C191.53 274.687 191.636 274.411 191.794 274.164C191.942 273.969 192.152 273.831 192.39 273.772C192.627 273.713 192.877 273.737 193.098 273.84C193.572 272.8 193.971 271.572 194.445 270.569C194.143 270.268 193.709 270.098 193.331 269.834L192.174 272.463C190.664 271.596 189.362 270.861 187.927 270.07L187.785 275.909C186.22 274.116 185.43 272.304 184.296 272.117C183.163 271.93 181.593 273.198 179.721 274.089L182.698 267.566C181.603 266.812 180.697 266.171 178.999 264.965L183.915 262.954C183.543 259.024 184.379 256.189 188.348 255.54L186.297 262.005C186.561 262.269 186.806 262.514 187.051 262.76C187.883 261.738 188.577 260.613 189.116 259.412C189.743 257.54 190.142 256.123 191.37 256.253C190.899 255.554 190.39 254.856 189.956 254.196C186.85 248.061 184.464 241.585 182.847 234.898C181.372 235.165 179.993 235.45 178.632 235.793L178.594 235.906ZM183.558 318.427L180.95 318.961C182.326 320.678 183.589 322.244 184.607 323.489L190.045 314.279C188.623 317.55 186.58 319.103 183.86 318.54L183.765 318.635L183.558 318.427ZM182.945 221.483C183.562 225.317 184.293 228.736 185.062 231.89C185.705 231.813 186.347 231.699 186.99 231.66C187.632 231.621 188.008 232.679 188.706 233.717L185.606 234.402C187.047 240.001 189.012 245.451 191.474 250.679C192.396 248.479 193.546 246.381 194.904 244.419C196.283 242.799 198.074 241.582 200.087 240.896C202.128 240.265 204.222 239.826 206.343 239.582C206.419 238.576 206.753 237.606 207.311 236.765C205.841 234.765 204.446 232.84 203.296 231.123C198.741 222.068 195.609 212.361 194.011 202.343L182.945 221.483ZM184.34 223.408C184.531 221.593 184.176 219.459 185.01 217.984C186.301 215.946 187.812 214.055 189.516 212.346C190.024 213.46 190.702 214.932 191.135 215.971L184.34 223.408ZM180.343 308.853C179.108 312.615 178.613 315.299 181.596 316.315C182.352 316.578 182.917 317.635 183.482 318.428L188.819 313.091C187.499 311.506 185.991 309.619 184.294 307.505C183.288 309.112 182.462 310.825 181.829 312.611L180.343 308.853ZM138.933 328.005L149.559 323.491C149.333 323.265 149.107 322.623 148.598 321.622L145.517 322.666C145.819 321.62 146.434 320.689 147.278 319.999L147.695 319.583C146.942 317.846 146.058 315.599 145.08 312.842L142.512 311.637L144.366 310.576C142.732 305.499 141.434 300.32 140.48 295.07L129.376 314.248C129.526 315.305 129.732 316.231 129.919 317.213L135.915 313.254L136.365 315.332C135.888 316.56 135.077 317.631 134.024 318.424C132.971 319.217 131.718 319.701 130.406 319.82C130.95 322.558 131.531 325.108 132.151 327.431C133.131 328.941 133.979 330.281 134.789 331.546L134.466 332.661C134.277 332.472 133.881 332.454 133.579 332.379C134.011 333.72 134.443 334.909 134.857 336.042L135.595 335.304C135.814 340.33 138.604 344.066 140.609 342.362C142.18 341.056 143.111 337.823 144.76 334.439L152.852 331.402C152.965 331.931 153.058 332.403 153.19 332.913C151.419 333.959 149.801 335.246 148.384 336.738C146.491 339.197 146.657 341.407 147.959 342.671L151.029 337.073L151.727 337.771L151.187 344.423C148.123 346.242 145.116 348.042 142.09 349.747C142.561 350.219 142.881 350.842 143.315 351.389C143.618 351.159 143.948 350.968 144.299 350.821C146.713 349.893 149.063 348.803 151.333 347.559C151.63 347.302 151.908 347.023 152.165 346.726L151.732 346.293C151.427 345.915 151.251 345.449 151.228 344.964C151.205 344.479 151.337 343.998 151.604 343.591C151.716 343.441 151.862 343.319 152.029 343.235C152.196 343.15 152.381 343.106 152.568 343.106C152.755 343.106 152.94 343.149 153.107 343.233C153.274 343.316 153.419 343.438 153.531 343.588L153.682 343.739C153.908 343.965 154.153 344.21 154.38 344.437L155.118 343.698L156.046 342.507C156.578 343.841 156.609 345.324 156.133 346.682C157.151 347.965 158.132 349.211 159.093 350.399L160.934 345.805L166.468 346.684L166.734 345.89C165.584 344.475 164.34 342.927 163.02 341.267L160.276 343.444L159.881 342.784L161.964 339.946C158.4 335.436 154.592 330.455 151.576 326.227C147.601 328.013 143.36 329.131 139.025 329.536C138.969 329.026 138.913 328.553 138.857 328.081L138.933 328.005ZM202.03 242.839L201.14 244.182C201.931 245.579 202.722 246.976 203.721 248.693L199.147 249.684L198.384 253.804C202.981 250.187 207.579 246.533 212.213 243.03C211.441 241.992 210.573 240.898 209.857 239.954L205.767 244.911C204.238 244.064 203.125 243.442 202.03 242.839ZM177.993 324.218C173.96 329.421 174.631 323.506 173.672 320.692L170.303 324.666C173.282 328.477 176.148 331.987 178.146 334.44L181.5 328.558C181.123 328.181 180.595 327.842 180.179 327.578C180.705 326.767 181.281 325.99 181.903 325.251C180.715 323.76 179.301 322.043 177.755 320.081C177.225 320.611 176.638 321.198 176.089 321.746C176.674 322.482 177.239 323.237 177.993 324.218ZM162.525 309.318L160.865 319.013C162.225 319.275 163.604 319.557 164.983 319.8L164.868 320.594L165 320.461C165.089 320.346 165.2 320.25 165.326 320.177C165.453 320.105 165.592 320.059 165.736 320.041C165.88 320.023 166.027 320.034 166.166 320.074C166.306 320.113 166.436 320.179 166.55 320.27L172.042 312.741C170.194 310.363 168.365 307.967 166.707 305.702C166.264 310.521 162.907 306.936 162.525 309.318ZM270.359 169.681C272.677 167.979 274.459 165.647 275.491 162.965L275.719 162.322C275.153 161.756 274.682 161.02 274.022 160.246C272.542 162.908 270.742 165.379 268.662 167.605C269.304 168.36 269.85 169.058 270.359 169.681ZM255.444 140.268L255.013 138.247L256.772 137.243C252.543 128.461 249.576 119.122 247.957 109.502L236.872 128.698C238.082 136.885 240.171 144.913 243.105 152.646C243.805 151.681 244.45 150.622 245.112 149.619L245.923 150.771C245.081 151.831 244.345 152.971 243.726 154.175C245.043 157.385 246.004 159.14 246.022 159.197C249.566 164.482 255.429 171.973 260.218 177.973L263.505 178.459C262.355 176.893 261.903 176.289 261.073 175.194C262.851 174.247 264.174 173.678 265.479 172.863L267.806 171.404C267.353 170.952 266.957 170.367 266.543 169.838C264.279 172.35 261.15 173.914 257.787 174.217C259.065 171.148 261.394 168.632 264.355 167.121C262.677 165.027 261.018 162.913 259.378 160.781C259.08 160.393 258.908 159.922 258.885 159.433C258.862 158.943 258.99 158.458 259.25 158.041C259.367 157.894 259.515 157.774 259.685 157.693C259.855 157.611 260.041 157.57 260.229 157.571C260.417 157.573 260.602 157.617 260.769 157.701C260.937 157.786 261.083 157.907 261.196 158.057C261.231 158.116 261.256 158.18 261.272 158.246C263.176 160.718 265.137 163.171 266.947 165.435C269.355 163.85 271.27 161.621 272.474 159.002L272.589 158.435C268.101 152.85 262.596 145.793 258.562 140.055C258.09 140.319 257.565 140.474 257.026 140.511C256.487 140.548 255.947 140.465 255.444 140.268ZM259.898 155.017C257.353 151.564 257.353 151.564 260.741 147.95L261.968 148.42L259.898 155.017ZM131.612 355.811C130.319 360.877 127.18 362.734 123.251 361.871C124.051 361.251 124.77 360.533 125.39 359.732C124.475 353.102 127.682 355.742 128.457 355.608C130.976 352.336 132.625 348.988 134.668 347.814C135.171 347.589 135.707 347.447 136.255 347.395C136.195 347.318 136.126 347.248 136.048 347.188C135.211 345.643 134.457 344.055 133.789 342.43L127.737 345.917L127.286 344.331L132.397 338.729C131.606 336.652 130.779 334.197 129.952 331.44C128.989 331.083 128.026 330.763 127.12 330.5C127.064 330.066 127.046 329.631 127.028 329.197L129.089 328.116C128.544 326.058 128.019 323.829 127.532 321.449C127.26 321.682 127.007 321.935 126.775 322.206C126.606 321.432 126.437 320.658 126.287 319.864L126.855 319.07L126.687 318.295L115.583 337.473C115.788 338.814 116.051 340.022 116.294 341.288L123.349 336.987C121.658 342.866 119.689 344.986 116.649 343.687C118.211 352.143 120.931 360.341 124.733 368.047C126.637 370.897 129.239 374.407 131.953 377.954L132.71 377.197C134.964 374.152 136.967 373.884 139.213 375.562C138.607 378.174 137.363 380.598 135.592 382.615L136.441 383.691L143.795 380.825L145.626 381.786C145.175 383.732 144.539 385.631 143.727 387.457C143.425 387.879 143.006 388.204 142.523 388.393C142.039 388.581 141.512 388.626 141.005 388.52C140.588 388.32 140.185 388.093 139.797 387.842C141.211 389.597 142.437 391.125 143.549 392.465C144.387 390.315 145.369 388.224 146.488 386.206C146.979 386.318 147.489 386.487 147.999 386.619L149.022 384.841C149.022 384.841 148.72 384.917 148.606 384.88C147.5 384.157 146.556 383.213 145.834 382.107L147.102 380.839C144.99 378.235 142.482 375.084 139.918 371.8C137.897 372.386 135.846 372.862 133.775 373.228C132.849 373.362 131.962 372.702 131.075 372.382C131.721 371.298 132.525 370.316 133.46 369.468C134.973 368.597 136.543 367.857 138.207 367.061C138.326 366.903 138.486 366.78 138.668 366.703C138.851 366.626 139.05 366.599 139.246 366.625L141.648 365.506L141.114 368.265C143.98 371.964 146.865 375.568 149.184 378.417C149.564 377.131 149.983 375.09 150.323 375.014C151.874 374.78 153.442 374.677 155.01 374.704L156.052 372.907C153.374 369.624 149 364.228 144.758 358.737C143.358 359.91 141.862 361.632 141.13 358.591C140.793 357.149 140.854 355.64 141.308 354.227C140.554 353.208 139.856 352.245 139.159 351.283C138.557 351.275 137.957 351.219 137.364 351.116C134.72 350.667 132.753 351.463 131.612 355.811ZM129.618 362.371L138.103 361.431C131.124 365.315 131.124 365.316 129.599 362.352L129.618 362.371ZM271.752 116.454L271.959 116.661C271.733 116.435 271.488 116.19 271.375 115.812L270.219 117.76C270.065 117.587 269.901 117.423 269.729 117.269L270.602 114.585C270.357 114.113 269.962 113.339 269.454 112.225C267.231 112.86 265.132 113.874 263.251 115.221C259.959 117.909 258.958 117.665 258.854 112.073C262.2 112.207 265.501 111.239 268.249 109.317C265.193 101.91 262.945 94.1915 261.542 86.2967L261.391 86.4481L261.524 86.3156L250.534 104.85L261.418 104.152L261.416 105.626L252.641 110.288L254.367 106.45L250.625 106.985C252.106 117.008 255.083 126.748 259.457 135.878L263.58 133.302C263.655 133.717 263.73 134.133 263.824 134.53C262.858 135.722 261.949 137.046 260.946 138.162C264.848 143.692 270.429 150.786 274.841 156.258L275.956 156.124L275.576 157.145C276.142 157.711 276.557 158.391 277.009 158.957C277.18 158.56 277.294 158.181 277.483 157.803C278.114 156.965 278.859 156.219 279.698 155.589C279.12 154.597 278.458 153.656 277.719 152.777C276.837 152.075 275.896 151.451 274.906 150.911L278.469 144.821C276.64 142.538 274.679 140.047 272.756 137.557C272.452 137.175 272.274 136.709 272.248 136.221C272.222 135.734 272.348 135.25 272.609 134.836C272.723 134.686 272.869 134.564 273.037 134.479C273.205 134.394 273.39 134.349 273.578 134.347C273.766 134.345 273.952 134.386 274.122 134.467C274.291 134.548 274.439 134.667 274.555 134.814C274.555 134.814 274.668 134.927 274.706 134.965C278.797 140.267 283.04 145.494 285.755 148.815L290.492 140.682C287.834 137.418 283.534 132.135 279.368 126.719C279.403 128.117 279.458 129.459 279.474 130.838C278.277 128.761 277.539 126.449 277.313 124.059C275.39 121.492 273.373 118.794 271.752 116.454ZM213.663 246.523L208.519 248.95C210.178 251.063 211.593 252.856 213.289 255.045L212.756 257.691C213.492 258.427 214.019 259.257 214.623 260.012L220.383 261.193L220.821 259.548C219.877 259.096 218.914 258.663 218.083 258.287L220.171 252.804C219.529 252.163 219.02 251.351 218.379 250.558L211.974 250.777L213.663 246.523ZM280.135 108.372L274.255 110.932L273.042 112.975C274.343 114.881 275.926 117.108 277.68 119.429C277.86 118.5 278.397 117.679 279.176 117.14L279.188 121.467C281.412 124.373 283.75 127.354 285.956 130.128L288.769 120.223C289.994 122.394 290.954 124.074 292.047 125.961L286.654 130.977C288.785 133.638 290.745 136.053 292.216 137.864L292.348 137.996L297.786 128.786C295.071 125.465 290.678 120.05 286.473 114.596C286.169 114.215 285.992 113.748 285.966 113.261C285.939 112.773 286.066 112.289 286.327 111.876C286.487 111.652 286.721 111.492 286.988 111.425C287.255 111.359 287.537 111.391 287.782 111.514C287.893 111.604 287.994 111.706 288.084 111.816L288.235 111.967C292.326 117.27 296.55 122.515 299.284 125.817L299.397 125.93L304.077 117.779L301.493 115.195C300.396 116.293 299.506 117.182 298.826 116.994C295.804 116.244 295.153 110.028 291.108 111.169C291.186 109.922 290.98 108.429 291.454 107.503C291.756 107.031 292.156 106.631 292.628 106.329L289.553 103.255C287.927 103.673 286.283 104.035 284.695 104.34L285.818 99.5199L283.196 96.898L278.195 104.993C278.59 105.654 279.043 106.522 280.154 108.391L280.135 108.372ZM287.527 106.187C283.321 112.996 283.321 112.996 281.96 113.187L282.441 107.801L287.527 106.187ZM212.836 198.458L210.937 204.129L205.191 205.008L212.704 197.834C210.526 191.714 208.855 185.422 207.71 179.024L202.253 188.254C202.461 188.272 202.688 188.234 202.914 188.271L201.571 189.388L198.103 195.384C198.363 195.52 198.615 195.671 198.858 195.836L198.667 197.348L196.947 197.369L196.474 198.183C197.878 208.859 200.994 219.233 205.7 228.908C207.113 231.003 208.923 233.494 210.884 236.098C211.46 236.296 212.017 236.548 212.545 236.851L211.901 237.495C213.768 239.929 215.71 242.438 217.595 244.816C217.738 244.858 217.883 244.889 218.03 244.91C221.416 244.386 224.639 243.088 227.445 241.115L226.352 239.794L224.593 240.874C223.994 241.363 223.263 241.66 222.494 241.728C220.341 241.392 218.244 240.772 216.677 240.415C215.83 238.13 215.134 236.261 214.438 234.392C214.552 234.014 214.629 233.636 214.705 233.258C215.8 233.936 216.875 234.633 218.31 235.538L220.657 232.813L221.991 237.478L223.712 236.473C222.166 234.511 220.544 232.473 218.923 230.36C218.619 229.982 218.442 229.517 218.419 229.031C218.397 228.546 218.528 228.065 218.795 227.658C218.908 227.508 219.053 227.386 219.221 227.302C219.388 227.218 219.573 227.174 219.76 227.173C219.947 227.173 220.131 227.216 220.299 227.3C220.466 227.384 220.611 227.505 220.723 227.655L220.873 227.806C222.759 230.259 224.682 232.674 226.473 234.92L231.107 232.286L230.963 227.638L231.663 227.353C226.742 221.259 220.652 213.428 216.863 207.785C215.291 204.781 213.944 201.663 212.836 198.458ZM248.332 167.752C246.73 165.582 245.165 163.374 243.846 161.449C243.638 161.242 242.866 159.675 241.737 157.107C241.257 157.69 240.602 158.103 239.87 158.285C239.138 158.466 238.367 158.407 237.673 158.115L240.947 155.181C240.702 154.596 240.495 154.048 240.213 153.387C239.53 154.711 238.452 155.412 236.225 153.98L239.178 150.423C237.177 144.636 235.633 138.701 234.56 132.67L223.456 151.847C224.324 157.484 225.59 163.05 227.245 168.505L229.669 165.1C230.593 166.025 231.65 167.081 232.857 168.288C231.151 168.902 229.535 169.744 228.054 170.79C229.217 174.812 230.715 178.728 232.531 182.497C235.773 187.291 240.901 193.933 245.407 199.613C246.276 198.477 246.89 197.167 247.208 195.774C247.475 194.753 250.177 194.39 251.784 193.877C252.372 193.785 252.967 193.759 253.56 193.799C251.222 190.893 248.526 187.515 245.868 184.062C245.571 183.678 245.398 183.212 245.372 182.726C245.346 182.24 245.467 181.758 245.721 181.342C245.838 181.194 245.986 181.074 246.156 180.993C246.326 180.911 246.511 180.87 246.699 180.871C246.887 180.873 247.072 180.917 247.24 181.002C247.408 181.086 247.554 181.207 247.667 181.357L247.799 181.489C250.721 185.282 253.682 188.999 256.133 192.018C257.42 190.731 258.763 189.388 260.145 188.006C258.825 186.686 255.081 188.015 256.413 182.495L260.548 184.359L259.889 182.678C256.835 178.867 253.215 174.263 249.727 169.677L249.292 170.113C247.835 171.154 246.341 172.12 244.846 173.237C241.687 175.529 238.547 177.915 235.426 180.244L235.07 178.374C239.516 174.72 243.924 171.18 248.332 167.752ZM223.522 180.49L218.751 186.242C217.96 184.468 217.32 182.957 217.17 182.655L225.048 171.608C223.368 166.467 222.038 161.217 221.069 155.894L209.965 175.072C211.369 185.679 214.478 195.984 219.172 205.589C223.073 211.534 229.729 219.969 234.706 226.309L241.532 223.634L238.365 218.878C239.254 218.782 239.631 218.894 239.972 218.705L241.012 218.042C238.523 214.947 235.469 211.136 232.471 207.267C232.174 206.886 232.002 206.422 231.979 205.938C231.957 205.455 232.084 204.975 232.343 204.566C232.453 204.411 232.599 204.284 232.767 204.196C232.936 204.108 233.122 204.061 233.312 204.059C233.502 204.057 233.689 204.099 233.859 204.184C234.029 204.268 234.176 204.391 234.289 204.544C234.289 204.544 234.289 204.544 234.44 204.695C236.835 207.77 239.229 210.808 241.379 213.488L241.682 212.92C242.114 212.199 242.463 211.431 242.725 210.632C243.828 206.02 243.999 205.586 246.776 206.167C245.927 205.091 245.097 204.072 244.079 202.789L240.3 203.098L240.303 201.359C241.143 201.42 241.987 201.374 242.816 201.223C238.461 195.694 233.615 189.411 230.411 184.655C228.49 180.956 226.879 177.104 225.594 173.137C224.574 174.033 223.836 175.205 223.468 176.51C223.101 177.816 223.119 179.198 223.522 180.49ZM223.907 187.651L230.785 187.186C225.81 190.916 223.826 190.863 223.831 187.575L223.907 187.651ZM103.757 404.377C103.872 403.244 103.95 401.996 104.124 399.748C103.087 401.554 101.915 403.28 100.62 404.912C99.5081 406.317 98.0179 407.375 96.3257 407.961L95.022 407.982C95.4736 409.115 95.8876 410.134 96.2452 410.984C97.5482 411.379 98.8134 411.773 100.135 412.149C99.4027 412.893 98.4692 413.406 97.45 413.627C97.7513 414.193 97.9585 414.59 97.9584 414.628C98.8443 415.93 99.8999 417.402 101.106 419.025L109.774 410.357C109.926 410.235 110.107 410.153 110.298 410.12C110.49 410.087 110.687 410.103 110.871 410.166C114.256 411.205 117.906 410.984 121.15 409.544C118.68 406.431 116.191 403.185 113.759 399.958C110.769 403.364 107.835 406.487 103.757 404.226L103.757 404.377ZM61.8188 445.788L62.027 445.579C62.027 445.579 61.8949 445.447 61.8195 445.372L61.8188 445.788ZM44.086 429.153C45.279 427.582 47.4722 426.634 47.7783 424.366L47.3262 423.573C47.4771 423.724 47.628 423.875 47.76 424.007C47.7907 423.169 47.6305 422.336 47.2917 421.571C47.3743 420.949 47.6234 420.361 48.0125 419.869C45.583 415.168 43.701 410.75 49.8803 410.192C49.7115 409.418 49.6182 408.719 49.5248 408.095C49.0595 407.351 48.7641 406.513 48.6597 405.641L41.952 417.177C42.633 418.602 43.1992 420.08 43.6451 421.596L45.8395 420.005C45.426 422.352 44.6844 424.63 43.6365 426.773L41.9703 428.892L43.3095 430.231L44.086 429.153ZM85.0981 444.729L85.382 444.445C85.1745 444.237 84.967 444.03 84.8542 443.728L84.5513 444.03C84.7779 444.143 84.9853 444.389 85.155 444.596L85.0981 444.729ZM5.23596 385.987L5.00886 386.215L5.32991 386.308L5.23596 385.987ZM151.201 380.926L151.675 380.113L150.768 380.379L151.201 380.926ZM21.4447 398.79C23.3469 402.471 25.136 405.963 26.9251 409.456C27.1997 403.447 25.3543 399.671 21.5393 398.695L21.4447 398.79ZM131.676 396.868C132.506 397.698 133.09 398.66 133.788 399.509C134.526 399.036 135.49 398.6 136.19 398.126C136.454 398.617 136.717 399.108 136.981 399.561C136.199 399.877 135.51 400.385 134.976 401.038C135.937 402.227 136.842 403.321 137.578 404.246L137.71 404.113L142.353 396.151C141.9 395.698 141.485 395.057 141.033 394.528L140.155 399.707C137.52 393.325 134.703 394.52 131.79 396.754L131.676 396.868ZM72.5172 443.162L72.6276 444.938C72.8093 445.015 72.9859 445.103 73.1562 445.202C74.9046 444.6 76.5007 443.622 77.8316 442.336C79.1625 441.051 80.1959 439.49 80.8585 437.764C77.1193 436.712 74.8653 440.06 72.6308 443.049L72.5172 443.162ZM127.496 377.244C125.686 374.79 124.008 372.469 122.651 370.431C119.635 364.541 117.294 358.327 115.672 351.908C115.54 351.775 115.238 351.776 115.125 351.738L108.248 362.727C106.285 361.559 104.569 359.351 103.019 359.883L102.735 359.978L102.186 360.905L102.523 362.68L103.356 361.847L103.122 365.853L103.684 368.687L105.275 366.492L106.343 371.875L109.478 372.512L109.286 374.44C108.115 374.404 106.735 374.879 105.772 374.181C105.282 373.813 104.876 373.343 104.584 372.804C105.758 377.291 107.228 381.694 108.984 385.985C109.374 385.896 109.774 385.851 110.174 385.851C114.179 386.297 116.338 383.46 118.461 379.413C119.517 380.129 120.48 380.789 121.103 381.222L111.394 390.931C112.413 391.458 113.225 391.892 114.112 392.362L113.297 393.932L114.711 395.914L116.732 396.042L115.597 397.178C118.18 400.631 121.102 404.386 123.817 407.821C126.691 406.342 130.261 407.111 132.177 402.252C131.235 401.082 130.273 399.893 129.236 398.591C128.254 399.439 127.135 400.112 125.926 400.581C126.835 399.37 127.574 398.443 128.369 397.497L124.749 392.855C124.448 392.472 124.273 392.006 124.247 391.519C124.221 391.033 124.345 390.549 124.602 390.134C124.712 389.979 124.858 389.853 125.026 389.765C125.195 389.676 125.381 389.629 125.571 389.627C125.761 389.625 125.949 389.668 126.118 389.752C126.288 389.836 126.436 389.96 126.548 390.112C126.607 390.153 126.659 390.204 126.699 390.263C128.019 391.961 129.32 393.603 130.602 395.226C131.699 394.079 133.037 393.189 134.518 392.621C135.999 392.054 137.587 391.822 139.167 391.943C136.828 389.037 134.151 385.641 131.361 382.055C130.094 382.303 128.903 383.155 127.637 382.95C128.071 383.686 128.485 384.441 128.824 385.007L124.036 389.795C123.245 388.436 122.68 387.379 122.208 386.605L127.496 377.244ZM91.5697 416.112C88.9378 419.404 85.948 422.394 82.6558 425.026C81.8291 426.302 81.1905 427.691 80.7595 429.148C81.1168 430.149 81.4366 430.999 81.8131 431.867C82.1257 431.631 82.3829 431.329 82.5663 430.982C82.7497 430.636 82.8549 430.254 82.8745 429.863C82.6745 425.12 84.6766 425.533 86.8692 425.038L86.335 428.1L89.0379 427.509L89.2627 428.643L82.8104 434.265C83.808 436.55 84.5049 437.89 84.5426 437.928C84.7158 438.119 84.8983 438.301 85.0896 438.475C85.853 437.742 86.5038 436.9 87.021 435.977C88.6127 433.216 89.8273 430.002 91.5321 427.392C91.9588 426.822 92.4947 426.342 93.1085 425.981C93.7223 425.62 94.4016 425.384 95.1066 425.289C95.6168 425.231 96.0673 427.007 96.7641 428.385L100.036 426.357C98.7535 425.075 98.1316 424.112 97.1699 422.961L98.9678 421.163C97.8557 419.635 96.8 418.163 95.8198 416.766C95.6689 416.615 95.1417 415.52 94.351 413.821C93.7728 413.961 93.23 414.22 92.7574 414.582C92.2849 414.944 91.8933 415.401 91.6079 415.923L91.5697 416.112ZM119.034 420.865C120.882 423.167 122.522 425.224 123.88 426.885C124.902 425.863 125.716 424.671 126.606 423.517L129.069 419.281C128.975 419.186 128.843 419.054 128.749 418.96L118.997 420.563L119.034 420.865ZM91.6795 440.977L93.7976 439.802L93.7819 437.893C94.1596 437.968 94.5374 438.043 94.8963 438.137L95.1215 439.044L97.1261 437.907L97.3907 437.906C97.3635 437.453 97.4835 437.002 97.7329 436.621C98.3196 436.034 99.0754 435.995 99.6979 436.618C99.756 436.659 99.8069 436.71 99.8488 436.768C100.584 437.731 101.338 438.674 102.074 439.599C101.511 437.03 100.986 434.424 100.443 431.912L91.3429 438.899L91.6795 440.977ZM191.899 279.114C189.067 277.872 186.228 280.446 185.221 284.207L187.238 286.793C188.868 285.4 190.573 284.098 192.346 282.892C193.34 282.238 194.19 281.387 194.844 280.394C194.467 280.016 194.09 279.639 193.864 279.148C193.334 279.565 192.805 279.528 191.899 279.114ZM39.5917 336.881C39.2926 334.917 38.7106 332.669 38.4681 330.799C37.7864 331.745 36.8605 331.803 35.2016 329.501L31.0244 330.471C31.3987 332.054 31.5235 333.685 31.3942 335.308C32.3127 335.358 33.2019 335.645 33.9756 336.14C34.7493 336.635 35.3814 337.322 35.8107 338.134L35.2719 332.675C36.2707 334.241 37.1951 335.052 37.2505 335.827C37.3045 337.447 37.2451 339.07 37.0724 340.683C39.3264 340.993 41.5976 341.166 43.8734 341.201L43.329 339.067L40.3819 338.845C40.7244 337.408 40.7463 335.613 41.3135 335.386L42.2966 335.006L41.4891 332.041L39.5917 336.881ZM24.5078 318.012C24.8975 318.67 25.1411 319.404 25.2222 320.165C25.3308 320.121 25.4457 320.096 25.5624 320.089L27.4212 327.133C27.6601 326.275 28.0312 325.458 28.5211 324.713C28.0306 324.222 27.7672 323.58 27.8622 323.259C28.6959 320.298 29.6846 317.383 30.8242 314.525C30.9378 314.411 31.8634 314.504 31.9575 314.75C32.282 315.479 32.4295 316.275 32.3882 317.073C32.1764 319.435 31.8135 321.76 31.4882 324.235L29.7098 325.674L30.0836 328.13L40.7256 325.373C40.4487 325.902 40.214 326.452 40.0237 327.018C40.4656 326.923 40.9213 326.916 41.3653 326.996C42.4759 329.432 43.5489 331.83 44.7354 334.152L50.1608 332.499C49.4828 333.424 49.0631 334.512 48.9449 335.652C48.8268 336.791 49.0145 337.94 49.4887 338.981L59.3419 321.997C55.3926 322.021 51.4534 321.622 47.5917 320.808C47.948 322.413 48.2478 323.924 48.6795 325.681C46.9315 324.173 45.5573 322.281 44.6642 320.151C41.7421 319.414 38.9162 318.341 36.2428 316.953C32.9968 314.654 28.8834 311.335 24.8646 307.96L21.3846 310.044C21.1081 311.519 21.2507 313.04 21.7962 314.436C22.3416 315.831 23.268 317.044 24.4701 317.937L24.5078 318.012ZM48.9409 327.532C49.9442 326.739 51.0516 326.089 52.2317 325.599C52.8556 325.39 53.6674 325.748 54.8575 325.916C54.2131 327.088 53.9468 328.185 53.3984 328.431C52.1408 328.901 50.8235 329.189 49.4859 329.288C49.2357 328.721 49.0589 328.125 48.9599 327.513L48.9409 327.532ZM35.8653 316.727C41.5541 327.072 34.7795 322.001 33.529 324.081C30.1033 316.264 35.3505 319.506 35.8842 316.708L35.8653 316.727ZM56.0085 224.679C58.5976 224.316 60.2444 222.518 61.8822 226.124C62.8423 228.22 64.1049 230.164 65.5555 232.75L64.7417 233.564C65.6094 234.432 66.6096 235.129 67.5719 235.94L72.6995 231.529C71.9073 230.737 71.2097 229.85 70.3044 228.869C70.5139 227.829 70.6672 226.582 70.9902 225.467L71.2173 225.24C67.3118 221.902 63.5762 218.621 60.9349 216.282L55.497 225.493C56.1572 226.153 56.8928 226.888 57.7987 227.529C57.2898 226.793 56.8001 225.849 56.0085 224.679ZM136.751 117.831C138.338 117.942 138.888 116.561 137.928 114.239C137.356 112.644 136.929 111.001 136.652 109.329C137.086 109.574 137.501 109.837 137.935 110.082L138.579 109.439C134.617 106.082 130.806 102.725 128.127 100.349L122.689 109.56C124.971 111.578 128.009 114.274 131.273 117.046C133.076 117.448 134.907 117.711 136.751 117.831ZM35.536 344.294C32.4977 343.762 29.5143 342.958 26.6219 341.891C27.656 344.969 28.7466 348.103 29.9123 351.54L30.6295 352.03C31.6657 352.764 32.6435 353.578 33.5541 354.463C33.7804 354.689 34.1585 354.575 34.6497 354.612C34.3296 353.951 34.0094 353.366 33.708 352.762L33.0652 353.028C32.7823 352.745 32.4993 352.462 32.2352 352.198L35.536 344.294ZM44.9799 346.168L44.736 345.167C41.6709 345.163 38.6124 344.903 35.5925 344.389L36.4044 344.746C36.5718 346.314 36.7205 347.788 36.964 349.091L40.5377 347.441C40.5734 348.65 40.7604 349.822 40.5525 349.916C38.9424 350.675 37.2954 351.353 35.6177 351.946L36.2968 352.625C35.56 354.539 34.7115 356.408 33.7556 358.222C32.6377 360.095 31.5769 361.759 33.0462 364.44L33.6591 359.451C33.9232 359.715 34.3766 359.752 34.7353 359.921L34.9935 363.737L42.3838 350.726C42.3247 349.646 42.1231 348.579 41.7845 347.553L43.5976 347.965L43.7287 348.702L44.9799 346.168ZM46.9562 339.363C46.9853 339.408 47.0239 339.447 47.0694 339.476L46.9562 339.363ZM145.551 109.219C145.189 110.981 144.713 112.717 144.125 114.418C143.993 114.286 142.974 113.683 141.974 113.023L141.783 114.195C142.556 115.233 143.404 116.346 143.951 117.158C142.575 118.488 141.051 119.657 139.41 120.642L137.141 121.817C138.669 123.08 140.122 124.23 141.519 125.324L144.296 125.678L144.294 126.661L143.632 126.945C144.028 127.341 144.576 127.662 145.029 127.963C152.554 131.492 160.866 133.027 169.168 132.42L180.272 113.243C172.334 113.474 164.468 111.755 157.361 108.236C153.549 105.522 148.53 101.411 143.889 97.4133C143.422 98.251 142.842 99.0212 142.166 99.7024C141.18 100.321 140.11 100.794 138.989 101.106C137.562 96.2335 137.924 94.2491 140.607 94.358C139.89 93.6412 139.211 92.9621 138.399 92.4155L132.061 97.7353L130.495 96.1697L129.851 97.3044C132.681 99.8315 136.737 103.396 140.869 106.884C141.294 106.402 141.75 105.947 142.232 105.522C143.159 104.783 144.481 104.819 145.634 104.496C145.713 106.07 145.686 107.648 145.551 109.219ZM12.7333 308.698C15.5075 310.639 16.508 311.186 17.6817 309.861C17.1733 308.785 16.6272 307.671 16.0999 306.652C17.1853 305.441 18.1612 304.137 19.0161 302.755C16.9973 301.001 14.9975 299.228 13.5825 297.965L13.0141 298.948L14.0493 301.346L11.9151 300.802L8.84542 306.135C9.86401 307.153 11.2226 308.209 12.5999 309.435L12.7333 308.698ZM125.669 124.084C125.653 122.549 125.548 121.016 125.355 119.494C125.414 118.471 125.549 117.454 125.757 116.451C124.002 114.924 122.399 113.509 121.097 112.359L116.36 120.491C118.492 122.396 121.34 124.904 124.416 127.525C125.061 126.474 125.488 125.303 125.669 124.084ZM182.621 109.12L193.725 89.9428C185.792 90.1747 177.93 88.4486 170.834 84.9172C169.192 83.7674 167.362 82.3534 165.418 80.8262C163.689 81.9464 161.888 82.9529 160.028 83.8394C159.556 84.048 158.632 82.8592 157.839 82.2559C158.313 81.4427 158.636 80.1007 159.26 79.8918C160.635 79.5267 162.039 79.2841 163.456 79.1668C159.739 76.1311 155.852 72.8122 152.532 69.908L150.413 71.1963L152.098 69.5119C150.513 68.1542 149.079 66.8718 147.909 65.8157L143.172 73.9858C143.738 74.5517 144.38 75.193 145.191 75.7396L145.702 75.4553L145.436 75.9848C148.247 78.4553 151.719 81.4726 155.191 84.3765L155.341 84.5274C155.603 84.8352 155.785 85.2032 155.87 85.5986C155.955 85.9939 155.941 86.4045 155.829 86.7939C156.509 87.1706 157.131 87.5664 157.641 87.8489C155.785 90.7501 154.325 93.8852 153.299 97.1709C153.168 98.1584 152.825 99.1065 152.293 99.9501C154.406 101.609 156.52 103.268 158.331 104.588C165.885 108.181 174.245 109.762 182.602 109.177L182.621 109.12ZM162.434 102.9C167.442 101.965 167.442 101.965 168.252 103.683C163.828 105.202 163.828 105.202 162.509 103.051L162.434 102.9ZM182.216 34.7533C181.914 34.4515 181.745 34.0172 181.519 33.6775L177.796 34.3072C177.694 33.7027 177.744 33.0819 177.943 32.5009C178.141 31.9199 178.482 31.3971 178.933 30.9799C179.383 30.5627 179.931 30.2642 180.526 30.1114C181.12 29.9587 181.743 29.9565 182.337 30.1051C184.084 30.0627 185.83 30.1864 187.551 30.4743C185.985 29.1732 184.457 27.8721 182.948 26.5898C182.016 26.8419 181.043 26.9074 180.087 26.7825C179.131 26.6576 178.209 26.3449 177.375 25.8622L179.043 23.0253C177.552 21.7241 176.175 20.4983 175.043 19.4799L170.306 27.6122C173.06 30.0639 176.966 33.515 180.947 36.8904L182.216 34.7533ZM157.941 66.8004L155.576 68.2214C160.954 72.8793 167.387 78.2912 171.898 81.5145C179.427 85.0532 187.746 86.5943 196.056 85.99L207.16 66.8129C199.226 66.9982 191.374 65.2405 184.288 61.6929C181.344 59.5816 177.702 56.6591 174.06 53.6232C173.626 53.3783 173.173 53.1523 172.739 52.9074L172.796 52.5483C168.494 48.9278 164.306 45.2693 161.457 42.7234L156.739 50.8746C159.795 53.5903 164.267 57.5317 168.719 61.2653C168.779 61.3055 168.83 61.3567 168.87 61.4162C169.18 61.7461 169.388 62.1578 169.471 62.6028C169.554 63.0478 169.508 63.5077 169.339 63.9284C169.278 64.1247 169.167 64.3023 169.018 64.4443C168.87 64.5863 168.687 64.6878 168.488 64.7393C168.289 64.7908 168.08 64.7905 167.882 64.7384C167.683 64.6863 167.501 64.5842 167.354 64.4418C162.75 60.5573 158.128 56.5027 155.053 53.7682L149.615 62.9787C150.935 64.2991 152.709 65.6943 154.558 67.3161C156.45 65.877 156.846 66.0842 157.941 66.8004ZM189.404 18.8514C189.63 19.0777 190.141 18.6423 190.386 18.8119C191.254 19.4529 192.065 20.2262 193.594 21.5274C191.076 22.4704 188.677 23.7045 186.446 25.2047C190.823 28.9385 195.445 32.7285 198.993 35.2922L198.937 35.349L199.031 35.4433C203.232 37.487 207.743 38.8263 212.382 39.4077L213.196 38.5939C213.441 38.8391 213.687 39.0843 213.837 39.4242L213.667 39.5945C216.813 39.9007 219.98 39.9271 223.133 39.6732L224.175 37.8766L212.367 26.0685C210.061 26.7147 207.777 24.9236 204.95 20.696L206.538 20.2399L195.749 9.45042L197.971 14.0569L197.516 15.0023L194.438 13.8171C194.815 14.1944 195.173 14.5528 195.551 14.93C195.611 14.969 195.663 15.0205 195.702 15.0809C196.024 15.3984 196.252 15.8001 196.358 16.2406C196.464 16.6812 196.445 17.143 196.302 17.574C196.239 17.7615 196.131 17.9308 195.988 18.0669C195.844 18.2031 195.669 18.3018 195.478 18.3544C195.288 18.4071 195.087 18.4119 194.895 18.3686C194.702 18.3253 194.523 18.2352 194.374 18.1062C189.808 14.2594 185.205 10.2237 182.167 7.48914L182.035 7.35711L176.484 16.6811C177.615 17.8129 179.106 19.0386 180.653 20.3586C183.55 16.7072 184.948 16.5537 189.404 18.8514ZM203.109 26.0083C206.871 24.8117 208.438 25.6594 209.695 30.7398C207.487 29.1752 205.298 27.5918 203.109 26.0083L202.996 25.8951C200.162 25.7109 197.328 25.5267 194.324 25.3616C196.182 21.8442 199.166 22.1416 203.109 26.0083ZM209.566 62.7467L213.735 55.5599L213.848 55.6731L220.783 43.6827L220.67 43.5695C217.351 43.6008 214.038 43.328 210.771 42.7547L209.995 43.5306C209.674 43.2099 209.372 42.9081 209.203 42.4361C206.007 41.7905 202.882 40.8338 199.874 39.5797C198.017 43.0971 195.171 38.6617 193.074 38.8352C193.554 37.9425 194.218 37.1619 195.023 36.5458C193.929 35.7163 192.778 34.7924 191.608 33.8496L184.687 37.5644C184.686 39.1005 184.576 40.6349 184.358 42.1562C183.46 42.0597 182.571 41.9034 181.695 41.6883C181.538 41.6801 181.384 41.6419 181.241 41.5757L178.654 40.8809L179.203 39.9542C175.128 36.4845 171.298 33.1088 168.6 30.7137L163.162 39.9242C168.69 44.8464 178.972 53.8418 185.37 58.3468C192.914 61.8815 201.244 63.4223 209.566 62.8222L209.566 62.7467ZM184.924 42.5332C188.095 44.5684 188.532 42.9239 188.102 40.4117C191.483 40.8029 192.634 41.8401 191.932 43.5985C190.851 46.1888 187.582 46.1375 184.924 42.5332ZM193.893 45.7113L201.317 46.7004L201.48 51.1024L192.297 51.609L193.893 45.7113ZM169.298 43.0693C172.041 40.6652 172.438 40.6834 174.663 43.6272L169.447 44.3917L169.298 43.0693ZM34.6752 441.43L41.0752 433.144L40.5693 430.594C38.3225 433.394 36.0885 436.119 33.8672 438.768C33.8672 438.768 33.8672 438.768 34.0561 438.767L34.6752 441.43ZM22.3859 412.222C22.3859 412.222 22.4422 412.505 22.4419 412.656L22.6884 412.146L22.3859 412.222ZM41.5264 457.215L41.639 457.668L42.0553 457.251C41.9943 457.167 41.91 457.103 41.8127 457.066C41.7154 457.029 41.6094 457.022 41.5077 457.045L41.5264 457.215ZM18.0127 428.78C17.6363 427.912 17.3543 427.062 16.9213 426.099C16.2751 425.807 15.7161 425.352 15.2986 424.779L15.2596 425.497C15.0144 425.252 14.7881 425.026 14.5617 424.799C14.749 425.782 14.9167 427.198 15.1604 428.35C15.1604 428.35 15.1604 428.35 15.0658 428.445L16.3564 436.322C16.6393 436.605 17.0736 436.774 17.4321 437.057L16.5805 437.908L17.2538 442.026L20.7593 435.955C19.5553 432.821 18.8599 430.612 17.9184 428.686L18.0127 428.78ZM68.3443 498.302C67.9329 497.834 67.4918 497.393 67.0239 496.982L68.2117 498.51L68.3443 498.302ZM29.7167 457.707L29.6031 457.82C29.6975 457.914 29.7729 457.99 29.8672 458.084C29.8275 457.954 29.7772 457.828 29.7167 457.707ZM12.9959 423.347L12.9954 423.649L13.3356 423.573C13.3544 423.668 13.2223 423.573 13.0902 423.441L12.9959 423.347ZM35.3748 429.753C35.4014 429.89 35.4457 430.023 35.5064 430.149L35.6578 429.998C35.6578 429.998 35.6012 429.941 35.4691 429.847L35.3748 429.753ZM49.7937 450.871L49.4719 451.193L49.699 450.966L49.7928 451.362L49.7937 450.871ZM194.447 8.14888L186.299 0.000193179L183.684 4.50135C185.872 6.42492 188.759 8.9708 191.74 11.5355L194.447 8.14888ZM21.074 349.099L21.356 349.911C21.6201 350.175 21.9978 350.287 22.3187 350.495C22.6395 350.702 22.1852 351.232 22.0718 351.232C21.9847 351.213 21.8945 351.213 21.8073 351.232L22.4279 352.989L23.6031 350.682C23.4903 350.342 23.3397 350.04 23.2646 349.737C23.0944 348.524 23.0584 347.295 23.1573 346.072C23.7798 346.695 24.3834 347.298 25.0436 347.958L25.4038 347.221C25.1427 345.181 24.9197 342.952 24.5263 340.893C23.9412 340.657 23.3735 340.38 22.8273 340.064C21.1477 338.877 19.2607 337.406 17.2417 335.804C18.9144 338.995 20.2269 342.365 21.155 345.849C21.2575 346.931 21.2303 348.022 21.074 349.099ZM9.8773 321.853C7.63978 319.921 5.54676 317.828 3.61489 315.591L5.6222 312.867L5.01821 312.49L2.157 317.426C2.42052 318.03 2.70282 318.691 2.94739 319.314C4.55105 320.728 6.38112 322.331 8.381 324.066C9.02662 323.439 9.53604 322.685 9.8773 321.853ZM8.81464 415.419C9.07871 415.683 9.15358 416.098 9.34196 416.438L8.98515 415.135L8.81464 415.419ZM113.349 135.914L113.178 136.084C118.857 141.044 126.423 147.512 131.537 151.15C139.073 154.665 147.389 156.193 155.696 155.588L166.799 136.41C158.863 136.627 151 134.909 143.889 131.404C142.719 130.574 141.398 129.556 140.021 128.482L138.924 128.975C139.471 129.522 139.98 130.031 140.169 130.446C138.068 132.547 136.343 135.97 132.85 134.256C132.85 134.256 132.661 134.446 132.604 134.502C127.14 136.609 121.695 139.112 115.503 135.57C113.672 134.534 111.86 133.365 109.765 132.103C112.055 130.153 113.664 127.978 117.308 129.691C118.019 130.074 118.813 130.28 119.622 130.291C120.431 130.303 121.231 130.121 121.956 129.759C119.201 127.383 116.635 125.12 114.711 123.385L109.273 132.595C110.16 133.482 111.273 134.368 112.443 135.424C112.782 135.612 113.047 135.763 113.349 135.914ZM57.6399 459.096C57.4927 458.186 57.2987 457.285 57.0587 456.395C57.1103 456.822 57.1917 457.245 57.3022 457.661L57.6399 459.096ZM23.685 301.519C23.3287 301.541 22.9747 301.592 22.6267 301.672C26.1548 304.708 29.9472 307.895 33.3626 310.553L33.8727 310.571C35.8834 305.806 37.6365 308.279 39.4075 311.299L41.6014 310.01C41.922 310.331 42.1102 310.822 42.355 311.256C41.1064 312.241 39.9511 313.924 38.5526 314.115C40.1542 314.818 41.8006 315.415 43.481 315.902C42.8934 312.483 43.0215 308.976 43.8571 305.604L46.4461 316.672L47.5037 316.935L52.3652 313.507C52.6476 314.092 52.9111 314.696 53.1935 315.319L50.0915 317.365C53.8419 317.977 57.6476 318.192 61.4458 318.007L72.5497 298.83C66.1721 298.903 59.8374 297.826 53.8498 295.649C53.8488 296.254 53.8857 296.783 53.9035 297.444L55.6406 298.121L55.103 303.261C52.3798 304.74 49.844 307.125 46.2038 303.295L50.9736 298.224C50.785 298.035 50.4259 298.055 50.1616 297.942C50.3336 296.751 50.5057 295.523 50.7155 294.332L49.6583 293.805C42.8834 288.96 32.3558 279.757 26.8659 274.797L22.1288 282.93C25.204 285.664 29.6754 289.606 34.1282 293.339C34.1282 293.339 34.1282 293.339 34.2791 293.49C34.5778 293.83 34.7776 294.246 34.8568 294.692C34.936 295.138 34.8916 295.598 34.7283 296.021C34.6673 296.218 34.5571 296.395 34.4082 296.537C34.2593 296.679 34.0766 296.781 33.8776 296.832C33.6786 296.884 33.4698 296.883 33.2713 296.831C33.0728 296.779 32.8911 296.677 32.7436 296.535C29.404 293.725 26.1023 290.84 23.3478 288.426C26.3379 296.866 26.3492 301.42 23.685 301.519ZM36.9305 301.062L38.3128 299.227C36.6187 295.413 35.094 291.996 33.607 288.579L34.8925 288.199C35.8866 292.599 41.1147 295.897 39.198 300.945C38.9324 301.626 37.8935 301.457 37.2318 301.666C37.1201 301.471 37.0195 301.269 36.9305 301.062ZM190.884 287.108L190.9 289.167C193.13 288.748 195.129 291.087 197.724 286.756C198.028 286.263 198.443 285.849 198.936 285.545C198.219 284.828 197.616 283.922 196.937 283.054C196.28 284.124 195.722 285.25 195.269 286.42L190.884 287.108ZM270.539 107.481C272.502 105.968 274.074 104.007 275.123 101.763C276.173 99.5187 276.668 97.057 276.568 94.5851L279.462 93.1632L265.541 79.2425L263.76 82.3063C265.048 90.9328 267.322 99.3796 270.539 107.481ZM115.512 164.421C115.738 164.95 115.983 165.46 116.19 165.97L111.329 169.02C113.8 171.037 116.178 172.923 118.16 174.336C125.693 177.859 134.011 179.386 142.318 178.774L153.422 159.597C145.496 159.832 137.641 158.112 130.549 154.59C130.002 154.043 129.19 153.61 128.511 153.082L126.086 157.281L132.471 157.648L132.563 159.329C131.353 159.483 130.125 159.692 128.897 159.751C126.006 159.888 125.064 158.265 125.353 154.58C125.245 153.285 124.724 152.061 123.866 151.087C122.848 150.297 121.707 149.679 120.487 149.26C121.225 148.9 121.887 148.577 122.492 148.35C118.152 144.767 113.643 140.863 110.153 137.79C109.698 137.919 109.22 137.946 108.754 137.867C108.078 137.713 107.415 137.505 106.771 137.247L102.906 143.715C105.981 146.45 110.434 150.373 114.906 154.125L115.056 154.276C115.267 154.531 115.422 154.827 115.513 155.146C115.604 155.464 115.627 155.798 115.582 156.127L121.046 154.436L121.533 156.476L115.107 157.922C115.081 157.744 115.043 157.567 114.995 157.394C114.771 157.542 114.505 157.611 114.238 157.591C113.971 157.571 113.719 157.463 113.521 157.283C108.917 153.398 104.295 149.344 101.201 146.59L95.763 155.801C99.291 158.95 104.762 163.74 109.951 168.021L115.512 164.421ZM62.4348 382.17L62.1506 382.643L62.5097 382.586L62.4348 382.17ZM185.937 172.051L185.67 173.487C185.183 173.397 184.682 173.407 184.199 173.515C183.715 173.623 183.257 173.827 182.853 174.115L163.734 207.08C164.215 207.002 164.704 206.982 165.189 207.02L159.981 214.492L159.926 213.642L68.8971 370.539L69.3509 370.312L70.6821 376.526C69.115 375.829 67.7557 375.189 66.4152 374.606L63.5161 379.58C64.5318 382.337 64.0757 383.924 62.6195 384.739C62.4695 384.059 62.3383 383.398 62.2261 382.718C61.7908 383.154 61.3744 383.57 60.9959 383.948L60.219 385.291C61.5593 388.508 62.5114 391.875 63.0553 395.319C63.3708 398.776 61.6281 401.462 60.7349 404.544C60.3388 404.147 59.9238 403.732 59.5088 403.317L59.8386 398.159C58.5168 397.67 57.3651 397.162 56.3079 396.672L52.5445 398.738C53.222 399.205 53.8537 399.735 54.4313 400.322C54.8463 400.737 54.8433 402.551 55.0303 403.722L54.5565 404.573C53.916 403.44 53.2565 402.326 52.6349 401.175L52.1231 402.177L52.4583 405.162C54.137 406.841 55.8544 408.066 57.3448 409.367C57.4464 409.133 57.6165 408.936 57.8327 408.8C58.0489 408.665 58.3009 408.598 58.5553 408.609C58.8976 408.657 59.2117 408.824 59.4426 409.08C59.8409 409.535 60.0613 410.118 60.0633 410.723L60.118 411.951C60.19 412.042 60.2723 412.124 60.3632 412.196C61.3464 411.741 62.5575 410.606 63.5031 410.075C64.1071 410.49 64.7104 411.282 65.3529 411.205C66.6568 411.071 68.0565 410.124 69.3225 410.103L70.2699 408.477L66.2647 408.256L70.9862 398.14C70.6707 394.683 70.5067 391.075 70.3998 387.183C70.4016 386.125 71.0452 385.368 71.8575 385.461C72.1956 385.518 72.5028 385.691 72.7258 385.951C73.14 386.389 73.3691 386.97 73.3655 387.574C73.3998 389.691 73.4909 391.712 73.601 393.677C74.5441 394.62 75.6948 395.771 76.902 396.978L80.3695 391.02C79.1279 391.47 77.91 391.983 76.7204 392.557L77.5019 388.456C78.673 388.68 79.7495 388.924 80.3728 389.055C80.2862 387.276 80.4225 385.492 80.7784 383.746C81.8222 381.004 83.1488 378.546 84.4189 376.031C84.4189 376.031 84.5321 376.144 84.5887 376.2C84.4399 374.765 84.3101 373.31 84.2181 371.818C83.3651 372.027 82.5821 372.459 81.9487 373.068C81.8172 372.634 81.6479 372.2 81.4975 371.747L84.0165 368.058C83.9621 366.717 83.9076 365.375 83.7965 364.053C83.7603 363.841 83.771 363.624 83.8277 363.417C83.8844 363.21 83.9859 363.017 84.1248 362.853C84.2638 362.689 84.4369 362.557 84.632 362.467C84.8271 362.377 85.0395 362.33 85.2542 362.331C85.5795 362.396 85.8764 362.561 86.1036 362.802C86.3514 363.099 86.5314 363.447 86.631 363.821L86.763 363.953L87.6911 362.61C86.8422 361.762 86.2015 360.742 85.4852 359.761C85.116 358.999 85.0111 358.135 85.187 357.305C85.9073 355.721 86.7434 354.191 87.6886 352.729C89.1536 357.979 90.3943 361.756 91.5595 365.533C93.1866 364.169 94.8705 362.825 96.8003 361.273L96.3622 363.333L98.6172 359.418L98.5988 359.097C98.466 358.702 98.409 358.285 98.4308 357.869L98.1139 355.281L91.1576 357.22C92.8236 354.933 95.1372 353.198 97.7978 352.24C97.5391 348.726 97.2432 344.91 97.212 340.904C97.176 339.846 97.8197 339.089 98.6508 339.201C98.9818 339.251 99.2835 339.418 99.5003 339.672C99.9193 340.107 100.149 340.691 100.14 341.296C100.208 346.133 100.54 350.591 101.006 354.804C101.006 354.804 101.138 354.936 101.213 355.011L110.365 339.257C108.532 339.657 108.123 335.652 106.441 335.636C110.781 327.523 110.847 333.72 112.165 336.212C111.295 330.086 110.819 323.908 110.741 317.717C110.724 316.64 111.368 315.884 112.199 315.996C112.525 316.057 112.823 316.222 113.048 316.466C113.438 316.92 113.663 317.492 113.688 318.09C113.704 319.885 113.795 321.567 113.887 323.248L120.818 313.789L121.383 315.224L124.556 315.597L126.034 313.063C125.308 307.865 124.863 302.631 124.7 297.383C122.86 301.675 119.607 303.645 117.041 301.685L124.61 294.908C124.591 294.783 124.591 294.655 124.61 294.53C124.574 293.472 125.237 292.696 126.049 292.827C126.384 292.867 126.693 293.028 126.917 293.279C127.316 293.733 127.536 294.317 127.538 294.922C127.605 299.91 127.957 304.538 128.441 308.883L137.896 292.6L137.555 292.94C138.117 291.7 138.763 290.5 139.488 289.347C138.66 283.4 138.203 277.406 138.12 271.4C138.122 270.342 138.766 269.585 139.578 269.678C139.912 269.746 140.215 269.918 140.446 270.168C140.86 270.606 141.089 271.188 141.086 271.792C141.153 276.78 141.486 281.427 141.97 285.734L153.13 266.614C152.244 260.482 151.762 254.297 151.687 248.1C151.689 247.042 152.333 246.285 153.126 246.397C153.392 246.479 153.627 246.636 153.805 246.849C154.215 247.306 154.442 247.897 154.445 248.511C154.512 253.499 154.864 258.127 155.329 262.453L166.47 243.314C165.617 237.179 165.148 230.996 165.065 224.8C165.029 223.742 165.673 222.985 166.504 223.097C166.835 223.147 167.137 223.314 167.353 223.568C167.779 224.008 168.015 224.598 168.012 225.211C168.079 230.199 168.412 234.846 168.896 239.153L169.616 237.905C169.541 237.565 169.447 237.206 169.391 236.847C169.921 236.317 170.488 235.75 171.132 235.295L179.943 220.108C179.064 213.983 178.588 207.804 178.519 201.613C178.502 200.537 179.145 199.78 179.976 199.892C180.303 199.953 180.601 200.118 180.826 200.363C181.233 200.805 181.461 201.384 181.465 201.986C181.526 206.653 181.828 211.313 182.368 215.948L193.093 197.451L193.453 196.752C192.577 190.719 192.07 184.637 191.934 178.54C191.917 177.501 192.579 176.725 193.392 176.856C193.558 176.873 193.719 176.923 193.865 177.004C194.011 177.085 194.139 177.195 194.241 177.327C194.66 177.762 194.89 178.346 194.881 178.951C194.943 183.568 195.244 188.177 195.784 192.761L196.314 192.231L202.473 181.206L201.943 181.736C201.678 182.001 200.848 181.284 199.337 180.569L206.53 172.999C205.773 167.129 205.373 161.218 205.331 155.297C205.333 154.239 205.976 153.482 206.789 153.575C207.122 153.644 207.426 153.815 207.657 154.065C208.06 154.51 208.287 155.087 208.297 155.689C208.349 160.356 208.65 165.017 209.199 169.65L220.341 150.511C219.455 144.379 218.973 138.195 218.898 131.997C218.866 131.786 218.88 131.571 218.939 131.366C218.997 131.16 219.099 130.97 219.237 130.807C219.375 130.644 219.546 130.512 219.739 130.42C219.932 130.328 220.142 130.279 220.356 130.275C220.681 130.34 220.978 130.505 221.205 130.746C221.615 131.202 221.842 131.794 221.845 132.408C221.912 137.396 222.263 142.024 222.747 146.331L233.794 127.324C232.915 121.186 232.439 114.995 232.37 108.791C232.333 108.582 232.342 108.367 232.397 108.162C232.452 107.956 232.552 107.765 232.69 107.602C232.827 107.44 232.999 107.309 233.192 107.22C233.386 107.132 233.596 107.087 233.809 107.089C233.975 107.107 234.136 107.157 234.281 107.238C234.427 107.319 234.556 107.428 234.658 107.56C235.079 108.003 235.315 108.59 235.317 109.202C235.384 114.19 235.717 118.838 236.201 123.145L247.248 104.1C246.547 99.1589 246.107 94.1836 245.931 89.1946L249.119 92.3824C249.266 94.9895 249.469 97.4643 249.749 99.8634L252.042 95.7973L252.155 95.9105L260.758 81.0832C260.403 78.722 260.123 76.2096 259.901 73.6025L248.206 61.9077L184.122 172.205L185.937 172.051ZM81.8129 363.886L78.03 366.311C79.3237 366.483 80.6045 366.74 81.8642 367.079C82.0362 368.197 82.1039 369.329 82.0664 370.461L77.989 368.238L79.3258 371.051L78.5498 371.827C77.5318 370.506 76.4759 369.185 75.4578 367.864L72.4315 369.797C72.3189 369.343 72.2063 368.89 72.0748 368.456L81.3244 362.186L81.8129 363.886ZM95.2343 337.223L94.8368 337.62L92.893 336.282L87.1924 344.397L86.3446 342.868C89.0879 340.691 89.2132 333.511 93.7456 334.826C94.4631 335.127 94.7821 336.43 95.2343 337.223ZM95.1739 328.116L107.812 318.043C107.744 319.572 107.348 321.069 106.653 322.433C105.957 323.797 104.977 324.998 103.779 325.952C102.581 326.907 101.193 327.595 99.7082 327.968C98.2237 328.341 96.6774 328.392 95.1739 328.116ZM242.484 94.0372C242.805 94.3579 243.22 94.5839 243.579 94.8667L239.654 103.017C239.15 99.1442 239.534 95.6292 242.484 94.0372ZM196.122 171.41L196.345 173.073L189.632 176.693L189.315 174.482L196.122 171.41ZM42.813 376.704C43.7409 375.399 44.4805 373.792 45.8449 371.371L46.3679 374.998C48.3988 380.814 47.9602 383.214 44.7063 385.676L45.3036 378.703C45.0584 378.458 44.8321 378.232 44.7189 378.118C44.4342 383.197 44.6345 388.29 45.3171 393.327L48.7658 387.351C48.7474 387.011 48.748 386.67 48.7675 386.331C48.7675 386.331 49.1074 386.443 49.2774 386.462L50.4711 384.401C50.2144 384.343 49.962 384.268 49.7157 384.175C49.2868 380.832 49.0087 377.601 48.6552 374.295L50.0527 374.746L51.1718 383.436L61.2529 365.81C61.0069 366.064 60.7013 366.253 60.3639 366.359C57.3654 366.662 54.3412 366.565 51.3708 366.072L52.1341 361.536C52.5834 362.025 53.1379 362.406 53.756 362.649C54.3741 362.893 55.0399 362.994 55.7034 362.944C56.3669 362.894 57.0109 362.694 57.5872 362.36C58.1636 362.026 58.6573 361.566 59.0313 361.014C60.0533 359.992 62.0553 360.48 63.5672 360.251C63.7935 360.477 63.8685 360.855 64.0569 361.157L89.884 316.467C89.7503 316.443 89.6179 316.412 89.4874 316.373C89.2988 316.185 89.1694 314.466 89.02 313.408C89.7656 313.467 90.4944 313.658 91.173 313.971L135.626 237.3C133.413 238.872 131.388 240.633 128.424 239.372C129.284 238.017 130.515 236.938 131.971 236.266C133.427 235.593 135.045 235.354 136.63 235.579L142.315 225.745L139.689 225.617L139.653 224.597L144.229 222.473L230.879 73.6509L230.993 73.764L241.679 55.3812L229.136 42.8374C227.624 43.0667 226.112 43.2582 224.77 43.4304L213.629 62.5698C215.424 62.3212 217.295 61.9969 219.185 61.5781L222.354 64.747C218.708 65.7016 214.981 66.3088 211.222 66.5605L200.194 85.5864C203.676 85.1608 207.111 84.4151 210.458 83.3587C210.704 83.2967 210.963 83.3062 211.204 83.3862C211.445 83.4661 211.657 83.6131 211.817 83.8099C212.084 84.0897 212.272 84.4346 212.364 84.8103C212.528 85.2338 212.529 85.7036 212.368 86.1293C212.207 86.5551 211.895 86.9068 211.491 87.1169C207.022 88.5047 202.413 89.3808 197.75 89.7282L186.627 108.886C190.104 108.432 193.537 107.686 196.891 106.659C197.132 106.584 197.39 106.586 197.63 106.663C197.87 106.741 198.08 106.89 198.231 107.091C198.5 107.369 198.689 107.715 198.778 108.092C198.948 108.514 198.953 108.987 198.791 109.414C198.629 109.841 198.313 110.193 197.905 110.398C193.448 111.789 188.852 112.677 184.202 113.047L173.06 132.187C176.626 131.676 180.141 130.861 183.57 129.751C183.812 129.69 184.065 129.699 184.302 129.775C184.539 129.852 184.75 129.993 184.91 130.183C185.179 130.461 185.368 130.807 185.457 131.184C185.625 131.612 185.627 132.088 185.461 132.518C185.296 132.948 184.977 133.302 184.565 133.509C180.109 134.9 175.512 135.788 170.862 136.158L159.815 155.203C163.295 154.766 166.729 154.021 170.078 152.975C170.32 152.912 170.575 152.919 170.813 152.995C171.05 153.072 171.261 153.215 171.419 153.407C171.688 153.686 171.876 154.031 171.965 154.408C172.136 154.831 172.141 155.303 171.979 155.73C171.817 156.158 171.501 156.509 171.092 156.714C166.641 158.123 162.042 159.012 157.39 159.364L146.343 178.408C147.666 178.217 149.045 177.969 150.444 177.702L157.03 170.89C157.275 171.362 157.482 171.834 157.727 172.305L153.412 176.998C154.489 176.751 155.528 176.504 156.625 176.162C156.867 176.105 157.12 176.115 157.356 176.191C157.593 176.267 157.803 176.406 157.966 176.594C158.238 176.88 158.432 177.231 158.531 177.613C158.688 178.037 158.684 178.504 158.52 178.926C158.355 179.347 158.042 179.695 157.639 179.901C153.181 181.316 148.577 182.211 143.917 182.569L141.757 186.352C142.399 186.297 143.045 186.309 143.684 186.386L139.976 189.415L132.965 201.519C136.446 201.094 139.882 200.348 143.228 199.292C143.47 199.237 143.722 199.249 143.958 199.325C144.194 199.401 144.405 199.539 144.569 199.724C144.844 200.008 145.039 200.359 145.134 200.743C145.305 201.166 145.309 201.638 145.148 202.066C144.986 202.493 144.669 202.844 144.261 203.05C139.802 204.45 135.198 205.332 130.54 205.68L119.398 224.819C122.882 224.383 126.322 223.644 129.68 222.611C129.921 222.536 130.18 222.538 130.419 222.615C130.659 222.692 130.869 222.842 131.021 223.043C131.287 223.323 131.476 223.668 131.567 224.043C131.738 224.466 131.742 224.938 131.581 225.366C131.419 225.793 131.102 226.144 130.694 226.35C126.235 227.73 121.64 228.618 116.992 228.999L106.305 247.42L106.474 247.93C107.268 247.815 108.08 247.681 108.893 247.51L108.706 246.49L113.24 246.558C114.223 246.33 115.206 246.101 116.227 245.759C116.473 245.704 116.73 245.716 116.97 245.796C117.209 245.875 117.423 246.019 117.586 246.211C117.845 246.496 118.032 246.839 118.133 247.211C118.303 247.634 118.308 248.106 118.146 248.533C117.984 248.961 117.668 249.312 117.26 249.518C113.763 250.615 110.177 251.399 106.543 251.859C106.208 252.362 105.755 252.775 105.224 253.062C104.694 253.35 104.101 253.503 103.498 253.508C103.133 253.614 102.787 253.781 102.477 254.001L100.715 257.046C102.243 258.121 103.81 259.195 105.527 260.382C103.577 263.012 102.342 266.812 100.505 269.554C101.261 269.364 101.998 269.231 102.773 268.984C103.015 268.909 103.273 268.911 103.513 268.988C103.752 269.066 103.962 269.215 104.114 269.416C104.383 269.694 104.571 270.04 104.66 270.417C104.831 270.839 104.836 271.312 104.674 271.739C104.512 272.166 104.196 272.518 103.787 272.723C100.365 273.8 96.8543 274.571 93.2973 275.027L94.2202 276.745C92.5764 276.766 90.9515 276.731 89.3078 276.677L79.0754 294.455C82.5615 294.011 86.0024 293.26 89.3576 292.208C89.5996 292.151 89.8525 292.161 90.0889 292.237C90.3252 292.313 90.5359 292.453 90.6983 292.64C90.9459 292.934 91.1317 293.274 91.2446 293.641C91.4127 294.069 91.4145 294.545 91.2494 294.975C91.0844 295.406 90.7645 295.759 90.3527 295.966C85.8991 297.368 81.3018 298.257 76.65 298.615L65.622 317.641C69.1032 317.216 72.5389 316.47 75.8852 315.414C76.1272 315.353 76.381 315.362 76.6179 315.438C76.8548 315.515 77.0655 315.656 77.226 315.846C77.5011 316.13 77.6961 316.481 77.7911 316.865C77.8976 317.211 77.9132 317.579 77.8366 317.933C77.7599 318.287 77.5934 318.616 77.3532 318.888L78.6388 318.394C77.4049 320.361 75.7147 322.001 73.7125 323.175C71.7103 324.35 69.4554 325.024 67.1399 325.14C64.6719 332.248 63.8019 332.741 59.726 329.611L66.7241 325.254C65.1845 325.317 63.6489 325.069 62.2096 324.524L75.5004 319.609C71.4582 320.774 67.3112 321.535 63.1209 321.878L52.0929 340.904C55.5741 340.478 59.0098 339.732 62.3561 338.676C62.6037 338.611 62.8643 338.617 63.1081 338.694C63.3519 338.77 63.569 338.914 63.7346 339.108C63.9824 339.405 64.1624 339.753 64.262 340.128C64.4138 340.698 64.3453 341.305 64.0702 341.828L65.0703 342.601L60.3037 345.784C61.4548 346.632 62.2284 347.254 63.7947 348.442C62.5334 348.921 61.2294 349.277 59.9007 349.506L62.4358 358.892C59.9038 356.394 58.2126 353.168 57.5954 349.661C54.7566 349.648 51.984 348.819 49.6071 347.275C51.0079 347.098 52.3803 346.74 53.69 346.21C55.1653 345.519 56.5607 344.667 57.851 343.671C55.1342 344.263 52.3814 344.672 49.6111 344.894L45.0824 352.705C46.0901 353.085 47.0629 353.551 47.9898 354.099C48.7759 354.851 49.4547 355.708 50.0072 356.646C47.9057 359.2 46.4347 357.578 44.9255 356.144C45.2999 358.222 45.6932 360.319 46.1242 362.491C45.5953 362.378 45.0665 362.228 44.5187 362.134C43.5214 360.642 42.8899 358.934 42.6754 357.149L38.6773 364.015C42.1625 363.585 45.6035 362.846 48.9594 361.806C49.2014 361.745 49.4552 361.754 49.6921 361.83C49.9291 361.907 50.1397 362.048 50.3002 362.238C50.5687 362.516 50.7574 362.862 50.8465 363.239C51.0169 363.661 51.0217 364.133 50.86 364.561C50.6982 364.988 50.3818 365.34 49.9735 365.545C46.8765 366.506 43.7105 367.225 40.5039 367.696C40.7492 367.941 40.7282 369.169 40.4821 369.453C39.849 370.406 39.0318 371.224 38.0786 371.857C38.3476 372.461 38.5677 373.086 38.7368 373.726C39.3008 375.426 39.9592 377.106 40.5799 378.787C41.421 378.204 42.1732 377.503 42.813 376.704ZM136.608 226.321C133.559 230.351 129.819 229.828 125.816 228.172L136.608 226.321ZM137.072 231.214L127.557 238.088C131.255 229.826 134.093 227.894 137.053 231.195L137.072 231.214ZM117.026 242.508L118.766 241.183C119.387 242.561 120.027 243.958 120.63 245.317L119.57 246.377L117.026 242.508ZM118.119 255.26C118.383 255.524 118.515 255.921 118.684 256.242C117.754 259.096 116.956 261.743 116.063 264.522C115.899 264.809 115.658 265.045 115.368 265.202C115.077 265.36 114.748 265.433 114.418 265.412C112.878 264.815 111.389 264.097 109.963 263.266L118.119 255.26ZM74.5353 309.105L82.2737 302.687C81.5271 308.565 78.1255 308.948 75.0063 309.955C74.8744 309.709 74.7049 309.388 74.5165 309.086L74.5353 309.105ZM67.2403 332.962L70.5795 324.643L75.8534 323.141L76.027 332.361L67.7316 332.923C68.5498 333.098 69.3383 333.389 70.073 333.788L65.2455 339.521C65.9899 334.967 66.2763 333.209 67.2214 332.943L67.2403 332.962ZM56.5837 355.879C54.3366 355.07 52.1462 354.243 49.2761 353.152C52.9841 350.349 55.1551 351.423 56.5648 355.86L56.5837 355.879ZM54.1925 396.222L54.703 395.976C54.703 395.976 54.5521 395.825 54.4955 395.768L54.1925 396.222ZM187.093 305.8L190.62 298.501C188.745 301.055 186.95 301.19 184.987 299.72C183.589 298.807 182.095 298.049 180.532 297.46C182.794 300.404 185.095 303.272 187.131 305.838L187.093 305.8ZM179.966 297.083L180.462 294.324C179.8 294.457 179.309 294.307 179.101 294.591C175.938 298.998 172.974 308.715 168.703 298.387C168.703 298.387 168.571 298.255 167.985 298.312C167.549 298.748 167.075 299.788 166.602 300.374C169.882 305.054 174.35 310.847 178.328 315.885L176.187 308.596C177.291 306.377 178.907 304.451 180.901 302.976C180.033 302.109 179.355 301.014 178.6 300.033C178.3 299.65 178.125 299.184 178.099 298.697C178.072 298.211 178.196 297.727 178.454 297.312C178.637 297.086 178.902 296.939 179.191 296.903C179.48 296.867 179.771 296.946 180.003 297.121L179.966 297.083ZM192.272 293.227C193.064 294.019 193.667 294.963 194.346 295.793C194.971 295.358 195.576 294.941 196.181 294.449C198.277 292.88 200.078 290.951 201.5 288.753C198.341 290.032 195.276 291.533 192.329 293.246L192.272 293.227ZM167.142 248.603L156.038 267.78C157.447 277.514 160.157 287.01 164.096 296.014C164.548 291.851 165.211 287.713 166.082 283.616C166.926 281.938 168.105 280.45 169.547 279.245C169.886 279.585 170.075 280.038 170.338 280.453L167.533 286.202L174 282.563L173.955 287.06L179.689 281.93C178.558 280.345 177.464 278.836 176.578 277.496C171.97 268.41 168.788 258.665 167.142 248.603ZM192.748 302.22L187.395 306.027C188.96 307.97 190.412 309.763 191.581 311.159L196.299 303.008C195.922 302.63 195.45 302.159 195.13 301.574L192.559 302.787L192.748 302.22ZM115.203 225.091L126.307 205.914C118.401 206.163 110.559 204.49 103.453 201.039C100.849 199.154 97.6412 196.628 94.3958 193.95C92.5812 194.445 90.7289 194.863 88.8765 195.32C86.8742 195.486 84.8927 195.85 82.9608 196.407C84.5645 197.783 86.2248 199.216 87.9041 200.593L88.055 200.744C88.3578 201.085 88.5614 201.503 88.6439 201.952C88.7264 202.402 88.6846 202.866 88.5231 203.294C88.4577 203.487 88.3442 203.661 88.1934 203.799C88.0425 203.936 87.8592 204.034 87.6608 204.081C87.4623 204.129 87.2551 204.125 87.0588 204.071C86.8625 204.016 86.6834 203.912 86.5384 203.769C84.6328 202.167 82.7461 200.545 80.9348 198.998C78.6437 201.969 75.4496 202.56 72.8012 204.491C72.5095 204.702 72.1993 204.886 71.8745 205.041C77.6099 210.095 85.6851 216.997 91.0257 220.823C98.5807 224.29 106.905 225.76 115.203 225.091ZM99.1572 216.615C103.489 213.377 104.642 213.319 105.694 216.831L99.3253 217.805L99.1572 216.615ZM80.2116 202.136C82.0971 204.476 83.3415 206.061 84.9442 208.042L81.1459 208.37L80.2116 202.136ZM65.1384 267.61L67.01 266.984C67.4726 266.802 67.8929 266.526 68.2446 266.174C68.5963 265.823 68.8719 265.402 69.054 264.94C70.2876 261.669 74.8831 259.111 77.5443 260.826C78.736 261.681 80.1578 262.158 81.6262 262.196C83.0945 262.234 84.542 261.831 85.7818 261.039C86.8207 260.697 87.9025 260.504 88.9948 260.467C85.9218 267.765 78.7172 271.31 73.053 268.863C73.1759 269.329 73.2698 269.802 73.3341 270.28C75.6664 270.818 78.0329 271.2 80.4175 271.421C82.31 269.528 86.3152 269.748 89.6036 269.251L90.7026 267.398L90.2682 267.266C90.2312 266.775 90.2321 266.284 90.214 265.812L92.0101 265.109L97.1263 256.221C95.4094 254.731 93.6736 253.26 91.9566 251.808C86.5807 251.237 81.3545 249.703 76.5277 247.28C72.4325 244.396 67.0551 239.927 62.1684 235.76L60.503 237.425L59.919 236.387L61.093 234.836C58.2818 232.403 55.6971 230.121 53.735 228.386L49.0168 236.538C50.6956 238.216 53.0354 240.064 55.488 242.214L58.2876 240.282C58.5512 240.848 58.8148 241.415 59.1161 241.981L56.8086 243.459C58.0724 244.723 59.5443 245.816 60.8839 246.928C60.9137 246.941 60.9407 246.958 60.9634 246.981C60.9861 247.004 61.0039 247.031 61.016 247.061C61.3293 247.392 61.5414 247.806 61.6277 248.254C61.7139 248.702 61.6707 249.166 61.503 249.592C61.4353 249.785 61.3203 249.959 61.1685 250.097C61.0167 250.235 60.8328 250.333 60.6337 250.383C60.4346 250.432 60.2265 250.43 60.0284 250.379C59.8303 250.327 59.6485 250.226 59.4994 250.086C59.2919 249.879 59.0655 249.652 58.8581 249.445C58.6117 249.88 58.4033 250.239 58.1767 250.126C57.0228 249.431 55.9798 248.566 55.0824 247.562L55.3299 246.446C54.8394 245.956 54.3679 245.484 53.8963 245.013L48.7327 248.328C48.5067 247.875 48.2996 247.441 48.1114 246.988L52.5944 243.9C50.5946 242.128 48.7457 240.506 47.2552 239.205L41.8362 248.396C47.3828 253.337 57.6463 262.314 64.0628 266.838C64.2134 267.14 64.5344 267.309 65.1384 267.61ZM12.3802 339.231L15.123 337.319C14.1207 335.852 13.4114 334.204 13.0339 332.466C11.7131 331.373 10.3923 330.279 9.09048 329.166C8.19428 329.958 7.17938 330.604 6.08311 331.08C7.03417 332.47 7.836 333.957 8.4753 335.516C9.22944 338.015 9.80606 340.565 10.2009 343.146C8.98824 333.833 9.06401 333.72 11.5024 333.092L10.4843 343.127L10.8243 343.164L10.9733 344.486L10.2734 344.96C10.0711 345.738 9.91215 346.527 9.79713 347.322C12.4804 347.513 15.1489 347.868 17.7876 348.386C16.0543 345.404 14.2455 342.346 12.3802 339.231ZM79.0777 236.317C76.4016 232.203 74.1512 233.435 71.5973 235.347C70.6892 236.029 69.348 235.899 67.7794 236.11C71.3265 239.089 74.855 241.936 77.6669 243.915C79.6367 244.903 81.6982 245.697 83.8225 246.286C83.2189 245.682 82.4071 245.287 81.6334 244.702L86.4197 241.01C86.4197 241.01 86.8162 241.179 87.2882 241.386L86.2262 243.769C89.1455 249.338 93.1761 245.647 97.2725 247.813L96.3457 248.4C98.1894 248.498 100.037 248.501 101.882 248.41L112.986 229.232C105.053 229.45 97.1946 227.725 90.0943 224.207C86.2633 221.474 81.2066 217.325 76.5464 213.346L76.0067 219.734L73.9495 218.358L73.7768 220.002C74.9282 220.661 76.0797 221.283 77.2312 221.904L77.1538 223L70.2999 220.197C71.6014 221.498 73.1112 222.591 74.5262 223.779L74.6771 223.93C74.9064 224.197 75.0727 224.512 75.1637 224.852C75.2547 225.192 75.2681 225.548 75.2029 225.894C76.24 227.159 77.239 228.574 78.4645 230.178C77.2114 233.808 81.0642 234.784 83.0229 238.522C81.0975 237.467 79.7185 237.299 79.0777 236.317ZM97.5244 232.735L98.5643 232.261C98.9969 233.488 99.9013 234.96 99.7109 235.867C99.5204 236.775 98.1973 237.117 96.6273 238.197L97.5244 232.735ZM85.7596 228.957L89.8231 228.213L87.5444 235.094C86.7741 232.469 86.2668 230.751 85.7596 228.957ZM90.5403 240.021L97.1706 240.935L97.5785 245.62C94.6153 243.717 92.3316 242.228 90.0101 240.739L90.5403 240.021ZM103.723 186.358C102.008 183.735 100.972 182.13 99.9163 180.545L100.03 180.432C98.7091 179.338 97.4073 178.225 96.1621 177.132C96.0113 178.529 96.1374 179.941 96.5331 181.288C96.8896 182.742 98.9852 183.74 100.249 184.815C101.347 185.454 102.512 185.972 103.723 186.358ZM69.8031 200.812L69.3295 201.625C69.5859 201.487 69.8269 201.322 70.0482 201.133C69.9758 201.019 69.8938 200.912 69.8031 200.812ZM98.1601 191.318C97.9266 191.512 97.7112 191.728 97.5167 191.961C100.083 194.035 102.517 195.977 104.555 197.41C112.084 200.948 120.403 202.49 128.713 201.885L139.798 182.689C131.868 182.931 124.007 181.218 116.907 177.702C110.132 172.857 99.6044 163.654 94.1144 158.694L91.8024 162.893C92.6533 162.457 93.5798 162.058 94.4494 161.755L93.4937 168.369L91.2289 166.861C91.2659 167.353 91.2651 167.844 91.2832 168.316C92.4735 168.333 93.8898 168.803 94.9111 168.159C97.5211 166.605 100.111 165.524 103.037 167.579C103.671 168.612 104.009 169.801 104.013 171.016C102.679 171.743 101.264 172.309 99.7971 172.704C99.1544 172.894 98.2481 172.518 97.775 172.953C97.538 173.226 97.3227 173.517 97.1312 173.823C98.395 175.087 99.8481 176.162 101.207 177.293C101.207 177.293 101.207 177.293 101.357 177.444C101.662 177.781 101.865 178.197 101.944 178.644C102.024 179.092 101.976 179.553 101.807 179.975L101.58 180.202C103.75 181.805 105.994 184.389 108.229 180.758C108.371 186.275 104.78 186.923 102.887 189.42C100.349 192.75 97.0703 187.692 94.3483 188.452L94.3087 189.548C94.4407 189.68 94.5539 189.793 94.6859 189.925C95.8944 190.377 96.744 190.734 98.1789 191.412L98.1601 191.318ZM73.1038 215.657L70.1794 213.111L75.2824 212.196C72.4146 209.707 69.7733 207.406 67.7169 205.577C67.5232 205.523 67.3386 205.44 67.1693 205.332L62.5459 213.313C64.1681 214.935 66.5456 216.858 68.8284 218.839L73.1038 215.657ZM22.6006 305.999L21.8272 305.225L21.3919 305.66L22.6006 305.999ZM10.4475 319.811C10.7371 317.966 10.7721 316.091 10.5513 314.238C11.4438 316.346 11.9949 318.583 12.184 320.867C12.7503 321.206 13.2599 321.526 13.845 321.884L13.4841 323.037C13.039 323.038 12.5954 322.988 12.1618 322.888C12.0498 324.163 11.7017 325.407 11.1354 326.556C11.6447 327.065 12.1351 327.555 12.7769 327.932C12.869 327.1 13.0348 326.278 13.2722 325.475C13.5231 326.719 13.8814 327.938 14.3431 329.12C16.5336 329.872 17.2311 330.834 17.3996 331.76C18.9845 333.042 20.5318 334.287 21.966 335.342C23.7428 334.886 25.8962 335.185 26.6188 332.425C26.7134 332.33 27.6958 332.442 27.8275 332.763L27.9051 331.516C27.3057 330.26 27.0848 328.855 27.2694 327.473L18.6141 328.584C18.0949 327.079 18.1756 325.431 18.8394 323.98C19.5032 322.529 20.6992 321.388 22.1792 320.793L22.5206 319.961C22.1063 319.131 21.7486 318.357 21.3531 317.583C21.4985 318.08 21.471 318.613 21.2751 319.094C21.2167 319.291 21.1082 319.468 20.9602 319.61C20.8123 319.752 20.63 319.853 20.4315 319.903C20.233 319.953 20.0251 319.95 19.8282 319.895C19.6314 319.84 19.4525 319.734 19.3092 319.589C17.8564 318.363 16.4225 317.156 15.0075 315.931C13.686 315.253 12.4215 314.405 11.2891 313.688L11.5171 312.894C10.6683 312.046 9.74365 311.348 8.9513 310.631L7.19002 313.11L8.20155 318.36C8.93751 318.907 9.71156 319.265 10.3529 319.906L10.4475 319.811ZM0.846393 332.921C1.00039 333.484 1.10685 334.059 1.16472 334.64C1.2779 334.753 1.39107 334.866 1.50425 334.979C1.35435 334.224 1.20448 333.468 0.903168 332.864L0.846393 332.921ZM74.975 294.707L82.8006 281.26L77.2841 280.967L77.1362 278.965L83.7677 279.162L83.7862 279.445L85.3968 276.627C83.2365 276.603 81.0784 276.79 78.953 277.186C73.9 278.688 68.9849 280.624 64.2627 282.973L63.6794 281.481C64.2398 280.677 64.9383 279.979 65.7423 279.418C69.6183 277.806 73.907 277.931 77.4452 274.959C73.3892 274.352 69.4249 273.248 65.6418 271.672C63.5234 273.074 61.0089 274.004 58.6356 269.548L60.9608 268.846C54.2618 263.812 45.3001 255.948 40.4516 251.629L35.7145 259.762C38.4501 262.195 42.3177 265.608 46.2987 268.983C46.2987 268.983 46.4685 269.153 46.5817 269.266C46.6948 269.379 47.2796 269.964 47.638 270.323L47.6757 270.36C48.0381 270.801 48.2314 271.356 48.2211 271.928C49.4462 273.721 50.5771 275.343 51.5195 276.74L51.4507 284.014C49.0534 282.639 46.6562 281.264 44.6553 280.134L45.612 272.914C41.1781 269.2 36.82 265.334 33.8391 262.693L28.4011 271.904C33.9666 276.864 44.2112 285.821 50.6277 290.345C58.1873 293.912 66.5535 295.442 74.8993 294.783L74.975 294.707ZM50.2988 260.947L52.1503 272.375C47.2673 265.978 47.0995 264.674 50.2988 260.947ZM53.8092 285.957C55.9605 287.578 57.9528 282.53 60.3076 286.664C55.1079 288.959 55.1079 288.959 53.8092 285.957ZM16.9478 296.712C17.608 297.372 18.3625 298.127 19.2118 298.711C19.5183 296.141 20.6524 295.912 23.2928 298.742L23.3668 288.369C22.3671 287.369 21.367 286.596 20.4803 285.785L18.2822 289.606L19.2015 293.515C18.4659 292.78 17.8245 292.138 17.1643 291.478L15.6485 294.088C15.7613 294.428 15.8551 294.787 15.949 295.146L21.8286 293.039C20.64 294.757 18.9275 296.046 16.9478 296.712Z" fill="url(#paint0_linear_153_5725)" fill-opacity="0.4"/>
<defs>
<linearGradient id="paint0_linear_153_5725" x1="255.75" y1="94.7909" x2="32.5233" y2="452.8" gradientUnits="userSpaceOnUse">
<stop stop-color="#94A3B8"/>
<stop offset="1" stop-color="#94A3B8" stop-opacity="0"/>
</linearGradient>
</defs>
</svg>
