<svg width="24" height="24" viewBox="0 0 24 24" fill="none" xmlns="http://www.w3.org/2000/svg">
<path fill-rule="evenodd" clip-rule="evenodd" d="M12.75 2C12.75 1.58579 12.4142 1.25 12 1.25C11.5858 1.25 11.25 1.58579 11.25 2V3.78656L10.3352 3.32918C9.96477 3.14394 9.51426 3.29411 9.32902 3.66459C9.14378 4.03507 9.29394 4.48558 9.66443 4.67082L11.25 5.46361V8.05661L8.9677 9.38324L6.71445 8.08229L6.82067 6.31295C6.8455 5.89949 6.53044 5.54418 6.11697 5.51936C5.7035 5.49453 5.34819 5.80959 5.32337 6.22306L5.26209 7.24374L3.71498 6.35049C3.35626 6.14338 2.89757 6.26628 2.69045 6.62499C2.48334 6.98371 2.60624 7.44241 2.96496 7.64952L4.51206 8.54276L3.65879 9.10612C3.31312 9.33434 3.21791 9.79957 3.44613 10.1452C3.67436 10.4909 4.13959 10.5861 4.48526 10.3579L5.96442 9.3813L8.21008 10.6779L8.21772 13.3177L5.9644 14.6187L4.48526 13.6421C4.13959 13.4139 3.67436 13.5091 3.44613 13.8548C3.21791 14.2004 3.31312 14.6657 3.65879 14.8939L4.51204 15.4572L2.96496 16.3505C2.60624 16.5576 2.48334 17.0163 2.69045 17.375C2.89757 17.7337 3.35626 17.8566 3.71498 17.6495L5.26209 16.7563L5.32337 17.777C5.34819 18.1904 5.7035 18.5055 6.11697 18.4807C6.53044 18.4558 6.8455 18.1005 6.82067 17.6871L6.71445 15.9177L8.95973 14.6214L11.2501 15.9345V18.5363L9.66443 19.3292C9.29394 19.5144 9.14378 19.9649 9.32902 20.3354C9.51426 20.7059 9.96477 20.8561 10.3352 20.6708L11.2501 20.2134V22C11.2501 22.4142 11.5859 22.75 12.0001 22.75C12.4143 22.75 12.7501 22.4142 12.7501 22V20.2137L13.6644 20.6708C14.0349 20.8561 14.4854 20.7059 14.6707 20.3354C14.8559 19.9649 14.7057 19.5144 14.3352 19.3292L12.7501 18.5366V15.9434L15.0324 14.6168L17.2857 15.9177L17.1794 17.6871C17.1546 18.1005 17.4697 18.4558 17.8831 18.4807C18.2966 18.5055 18.6519 18.1904 18.6767 17.777L18.738 16.7563L20.2851 17.6495C20.6438 17.8566 21.1025 17.7337 21.3097 17.375C21.5168 17.0163 21.3939 16.5576 21.0351 16.3505L19.4881 15.4572L20.3413 14.8939C20.687 14.6657 20.7822 14.2004 20.554 13.8548C20.3258 13.5091 19.8605 13.4139 19.5149 13.6421L18.0357 14.6187L15.7898 13.322L15.7822 10.6823L18.0356 9.38124L19.5149 10.3579C19.8605 10.5861 20.3258 10.4909 20.554 10.1452C20.7822 9.79957 20.687 9.33434 20.3413 9.10612L19.4879 8.54269L21.0349 7.64952C21.3937 7.44241 21.5166 6.98371 21.3094 6.62499C21.1023 6.26628 20.6436 6.14338 20.2849 6.35049L18.738 7.24362L18.6767 6.22306C18.6519 5.80959 18.2966 5.49453 17.8831 5.51936C17.4697 5.54418 17.1546 5.89949 17.1794 6.31295L17.2856 8.08217L15.0403 9.37857L12.75 8.06548V5.46345L14.3352 4.67082C14.7057 4.48558 14.8559 4.03507 14.6707 3.66459C14.4854 3.29411 14.0349 3.14394 13.6644 3.32918L12.75 3.7864V2ZM9.71011 10.6867L9.71775 13.3269L12.0078 14.6399L14.2898 13.3134L14.2821 10.673L11.9923 9.36012L9.71011 10.6867Z" fill="#22D3EE"/>
</svg>
